# Rhino

o object_1
v 0 0 0
v -200 0 0
v 0 0 -105
v -200 0 -105
v 0 0 0
v 0 0 -105
v 0 105 0
v 0 105 -105
v 0 105 -37.5
v 0 52.5 -37.5
v 0 52.5 -67.5
v 0 105 -67.5
v 0 0 -105
v -200 0 -105
v 0 105 -105
v -200 105 -105
v -200 0 -105
v -200 0 0
v -200 105 -105
v -200 105 0
v -200 0 0
v 0 0 0
v -200 105 0
v 0 105 0
v -73.361068725585938 52.5 -83.093376159667969
v 0 52.5 -67.5
v -73.361068725585938 52.5 -21.906623840332031
v 0 52.5 -37.5
v -73.361068725585938 52.5 -83.093376159667969
v -73.361068725585938 52.5 -21.906623840332031
v -73.361068725585938 105 -83.093376159667969
v -73.361068725585938 105 -21.906623840332031
v -73.361068725585938 52.5 -21.906623840332031
v 0 52.5 -37.5
v -73.361068725585938 105 -21.906623840332031
v 0 105 -37.5
v 0 52.5 -67.5
v -73.361068725585938 52.5 -83.093376159667969
v 0 105 -67.5
v -73.361068725585938 105 -83.093376159667969
v 0 105 0
v -200 105 0
v 0 105 -105
v -200 105 -105
v 0 105 -67.5
v 0 105 -37.5
v -73.361068725585938 105 -21.906623840332031
v -73.361068725585938 105 -83.093376159667969
vt 0.37460792064666748 0
vt 0.37460792064666748 0.47621923685073853
vt 0.62539207935333252 0
vt 0.62539207935333252 0.47621923685073853
vt 0.99853515625 0.4896261990070343
vt 0.74921584129333496 0.4896261990070343
vt 0.99853515625 0.74041032791137695
vt 0.74921584129333496 0.74041032791137695
vt 0.90949255228042603 0.74041032791137695
vt 0.90949255228042603 0.61501824855804443
vt 0.83825844526290894 0.61501824855804443
vt 0.83825844526290894 0.74041032791137695
vt 0 0
vt 0 0.47621923685073853
vt 0.25078415870666504 0
vt 0.25078415870666504 0.47621923685073853
vt 0.99853515625 0
vt 0.74921584129333496 0
vt 0.99853515625 0.25078415870666504
vt 0.74921584129333496 0.25078415870666504
vt 0.74775099754333496 0.72846823930740356
vt 0.27153176069259644 0.72846823930740356
vt 0.74775099754333496 0.9777875542640686
vt 0.27153176069259644 0.9777875542640686
vt 0.12539207935333252 0.72846823930740356
vt 0.12539207935333252 0.90759974718093872
vt 0.27006691694259644 0.72846823930740356
vt 0.27006691694259644 0.90759974718093872
vt 0 0.47768408060073853
vt 0 0.62382376194000244
vt 0.12539207935333252 0.47768408060073853
vt 0.12539207935333252 0.62382376194000244
vt 0 0.72846823930740356
vt 0 0.90759974718093872
vt 0.12392722815275192 0.72846823930740356
vt 0.12392722815275192 0.90759974718093872
vt 0.13576588034629822 0.47768408060073853
vt 0.13576588034629822 0.65681564807891846
vt 0.26115795969963074 0.47768408060073853
vt 0.26115795969963074 0.65681564807891846
vt 0.74775099754333496 0.47768408060073853
vt 0.27153176069259644 0.47768408060073853
vt 0.74775099754333496 0.72700339555740356
vt 0.27153176069259644 0.72700339555740356
vt 0.74775099754333496 0.63796079158782959
vt 0.74775099754333496 0.5667266845703125
vt 0.57307124137878418 0.52970069646835327
vt 0.57307124137878418 0.67498677968978882
vn 0 -1 0
vn 0 -1 0
vn 0 -1 0
vn 0 -1 0
vn 1 0 0
vn 1 0 0
vn 1 0 0
vn 1 0 0
vn 1 0 0
vn 1 0 0
vn 1 0 0
vn 1 0 0
vn 0 0 -1
vn 0 0 -1
vn 0 0 -1
vn 0 0 -1
vn -1 0 0
vn -1 0 0
vn -1 0 0
vn -1 0 0
vn 0 0 1
vn 0 0 1
vn 0 0 1
vn 0 0 1
vn 0 1 0
vn 0 1 0
vn 0 1 0
vn 0 1 0
vn 1 0 0
vn 1 0 0
vn 1 0 0
vn 1 0 0
vn -0.20791168510913849 0 -0.97814762592315674
vn -0.20791168510913849 0 -0.97814762592315674
vn -0.20791168510913849 0 -0.97814762592315674
vn -0.20791168510913849 0 -0.97814762592315674
vn -0.20791168510913849 0 0.97814762592315674
vn -0.20791168510913849 0 0.97814762592315674
vn -0.20791168510913849 0 0.97814762592315674
vn -0.20791168510913849 0 0.97814762592315674
vn 0 1 0
vn 0 1 0
vn 0 1 0
vn 0 1 0
vn 0 1 0
vn 0 1 0
vn 0 1 0
vn 0 1 0
f 2/2/2 4/4/4 3/3/3 1/1/1
f 11/11/11 10/10/10 5/5/5
f 7/7/7 5/5/5 10/10/10
f 8/8/8 11/11/11 6/6/6
f 5/5/5 6/6/6 11/11/11
f 10/10/10 9/9/9 7/7/7
f 11/11/11 8/8/8 12/12/12
f 14/14/14 16/16/16 15/15/15 13/13/13
f 18/18/18 20/20/20 19/19/19 17/17/17
f 22/22/22 24/24/24 23/23/23 21/21/21
f 26/26/26 25/25/25 27/27/27 28/28/28
f 30/30/30 29/29/29 31/31/31 32/32/32
f 34/34/34 33/33/33 35/35/35 36/36/36
f 38/38/38 37/37/37 39/39/39 40/40/40
f 47/47/47 41/41/41 46/46/46
f 47/47/47 48/48/48 44/44/44 42/42/42
f 41/41/41 47/47/47 42/42/42
f 48/48/48 45/45/45 43/43/43
f 43/43/43 44/44/44 48/48/48
