# Rhino

o object_1
v 73.361068725585938 52.5 -83.093376159667969
v 0 52.5 -67.5
v 73.361068725585938 52.5 -21.906623840332031
v 0 52.5 -37.5
v 73.361068725585938 52.5 -83.093376159667969
v 73.361068725585938 52.5 -21.906623840332031
v 73.361068725585938 105 -83.093376159667969
v 73.361068725585938 105 -21.906623840332031
v 73.361068725585938 52.5 -21.906623840332031
v 0 52.5 -37.5
v 73.361068725585938 105 -21.906623840332031
v 0 105 -37.5
v 0 52.5 -67.5
v 73.361068725585938 52.5 -83.093376159667969
v 0 105 -67.5
v 73.361068725585938 105 -83.093376159667969
v 73.361068725585938 105 -83.093376159667969
v 0 105 -67.5
v 73.361068725585938 105 -21.906623840332031
v 0 105 -37.5
v -73.361068725585938 52.5 -83.093376159667969
v 0 52.5 -67.5
v -73.361068725585938 52.5 -21.906623840332031
v 0 52.5 -37.5
v -73.361068725585938 52.5 -83.093376159667969
v -73.361068725585938 52.5 -21.906623840332031
v -73.361068725585938 105 -83.093376159667969
v -73.361068725585938 105 -21.906623840332031
v -73.361068725585938 52.5 -21.906623840332031
v 0 52.5 -37.5
v -73.361068725585938 105 -21.906623840332031
v 0 105 -37.5
v 0 52.5 -67.5
v -73.361068725585938 52.5 -83.093376159667969
v 0 105 -67.5
v -73.361068725585938 105 -83.093376159667969
v -73.361068725585938 105 -83.093376159667969
v 0 105 -67.5
v -73.361068725585938 105 -21.906623840332031
v 0 105 -37.5
vt 0.65824264287948608 0.73089760541915894
vt 0.32985374331474304 0.73089760541915894
vt 0.65824264287948608 0.99853515625
vt 0.32985374331474304 0.99853515625
vt 0.26910239458084106 0.23089760541915894
vt 0 0.23089760541915894
vt 0.26910239458084106 0.46033036708831787
vt 0 0.46033036708831787
vt 0.62625080347061157 0.23089760541915894
vt 0.29639708995819092 0.23089760541915894
vt 0.62625080347061157 0.46033036708831787
vt 0.29639708995819092 0.46033036708831787
vt 0.62625080347061157 0
vt 0.29639708995819092 0
vt 0.62625080347061157 0.22943276166915894
vt 0.29639708995819092 0.22943276166915894
vt 0.65824264287948608 0.46179521083831787
vt 0.32985374331474304 0.46179521083831787
vt 0.65824264287948608 0.72943276166915894
vt 0.32985374331474304 0.72943276166915894
vt 0.98809635639190674 0.5
vt 0.65970748662948608 0.5
vt 0.98809635639190674 0.76910239458084106
vt 0.65970748662948608 0.76910239458084106
vt 0.26910239458084106 0
vt 0 0
vt 0.26910239458084106 0.22943276166915894
vt 0 0.22943276166915894
vt 0.32838889956474304 0.73089760541915894
vt 0 0.73089760541915894
vt 0.32838889956474304 0.96179521083831787
vt 0 0.96179521083831787
vt 0.32838889956474304 0.46179521083831787
vt 0 0.46179521083831787
vt 0.32838889956474304 0.69269281625747681
vt 0 0.69269281625747681
vt 0.98809635639190674 0
vt 0.65970748662948608 0
vt 0.98809635639190674 0.26910239458084106
vt 0.65970748662948608 0.26910239458084106
vn 0 -1 0
vn 0 -1 0
vn 0 -1 0
vn 0 -1 0
vn 1 0 0
vn 1 0 0
vn 1 0 0
vn 1 0 0
vn -0.20791168510913849 0 0.97814762592315674
vn -0.20791168510913849 0 0.97814762592315674
vn -0.20791168510913849 0 0.97814762592315674
vn -0.20791168510913849 0 0.97814762592315674
vn -0.20791168510913849 0 -0.97814762592315674
vn -0.20791168510913849 0 -0.97814762592315674
vn -0.20791168510913849 0 -0.97814762592315674
vn -0.20791168510913849 0 -0.97814762592315674
vn 0 1 0
vn 0 1 0
vn 0 1 0
vn 0 1 0
vn 0 -1 0
vn 0 -1 0
vn 0 -1 0
vn 0 -1 0
vn -1 0 0
vn -1 0 0
vn -1 0 0
vn -1 0 0
vn 0.20791168510913849 0 0.97814762592315674
vn 0.20791168510913849 0 0.97814762592315674
vn 0.20791168510913849 0 0.97814762592315674
vn 0.20791168510913849 0 0.97814762592315674
vn 0.20791168510913849 0 -0.97814762592315674
vn 0.20791168510913849 0 -0.97814762592315674
vn 0.20791168510913849 0 -0.97814762592315674
vn 0.20791168510913849 0 -0.97814762592315674
vn 0 1 0
vn 0 1 0
vn 0 1 0
vn 0 1 0
f 2/2/2 1/1/1 3/3/3 4/4/4
f 6/6/6 5/5/5 7/7/7 8/8/8
f 10/10/10 9/9/9 11/11/11 12/12/12
f 14/14/14 13/13/13 15/15/15 16/16/16
f 18/18/18 20/20/20 19/19/19 17/17/17
f 22/22/22 24/24/24 23/23/23 21/21/21
f 26/26/26 28/28/28 27/27/27 25/25/25
f 30/30/30 32/32/32 31/31/31 29/29/29
f 34/34/34 36/36/36 35/35/35 33/33/33
f 38/38/38 37/37/37 39/39/39 40/40/40
