# Rhino

o object_1
v 0 0 0
v -200 0 0
v 0 0 -105
v -200 0 -105
v -200 0 -105
v -200 0 0
v -200 105 -105
v -200 105 0
v -88.36106873 52.5 -85.59337616
v -15 52.5 -70
v -88.36106873 52.5 -19.40662384
v -15 52.5 -35
v -88.36106873 52.5 -85.59337616
v -88.36106873 52.5 -19.40662384
v -88.36106873 105 -85.59337616
v -88.36106873 105 -19.40662384
v -88.36106873 52.5 -19.40662384
v -15 52.5 -35
v -88.36106873 105 -19.40662384
v -15 105 -35
v -15 52.5 -70
v -88.36106873 52.5 -85.59337616
v -15 105 -70
v -88.36106873 105 -85.59337616
v -15 52.5 0
v 0 52.5 0
v -15 52.5 -105
v 0 52.5 -105
v -15 52.5 -35
v -15 52.5 -70
v -15 52.5 0
v -15 52.5 -35
v -15 105 0
v -15 105 -35
v -15 52.5 -70
v -15 52.5 -105
v -15 105 -70
v -15 105 -105
v 0 0 0
v 0 0 -105
v 0 52.5 0
v 0 52.5 -105
v 0 0 -105
v -200 0 -105
v -200 105 -105
v 0 52.5 -105
v -15 52.5 -105
v -15 105 -105
v -200 0 0
v 0 0 0
v -200 105 0
v 0 52.5 0
v -15 105 0
v -15 52.5 0
v -15 105 0
v -200 105 0
v -200 105 -105
v -15 105 -35
v -88.36106873 105 -19.40662384
v -88.36106873 105 -85.59337616
v -15 105 -70
v -15 105 -105
vt 0.4761904776 0
vt 0 0
vt 0.4761904776 0.25
vt 0 0.25
vt 0.9985351562 0.1785714328
vt 0.75 0.1785714328
vt 0.9985351562 0.4271065891
vt 0.75 0.4271065891
vt 0.1785714328 0.3275862038
vt 0 0.3275862038
vt 0.1785714328 0.4851737022
vt 0 0.4851737022
vt 0.6000000238 0.184432134
vt 0.6000000238 0.3420196474
vt 0.7250000238 0.184432134
vt 0.7250000238 0.3420196474
vt 0.875 0
vt 0.875 0.1771065891
vt 0.9985351562 0
vt 0.9985351562 0.1771065891
vt 0.75 0
vt 0.75 0.1771065891
vt 0.8735351562 0
vt 0.8735351562 0.1771065891
vt 0.5 0
vt 0.5 0.03571428731
vt 0.7485351562 0
vt 0.7485351562 0.03571428731
vt 0.5828450322 0
vt 0.665690124 0
vt 0.5833333135 0.184432134
vt 0.5 0.184432134
vt 0.5833333135 0.3094321489
vt 0.5 0.3094321489
vt 0.5 0.05532964319
vt 0.5 0.138662979
vt 0.625 0.05532964319
vt 0.625 0.138662979
vt 0.2485351562 0.6494535208
vt 0 0.6494535208
vt 0.2485351562 0.7744535208
vt 0 0.7744535208
vt 0.75 0.4285714328
vt 0.75 0.9032970667
vt 0.9985351562 0.9032970667
vt 0.8742675781 0.4285714328
vt 0.8742675781 0.4641758502
vt 0.9985351562 0.4641758502
vt 0.5 0.4285714328
vt 0.5 0.9032970667
vt 0.7485351562 0.4285714328
vt 0.6242675781 0.9032970667
vt 0.7485351562 0.8676926494
vt 0.6242675781 0.8676926494
vt 0.25 0.3275862038
vt 0.25 0.7680624127
vt 0.4985351562 0.7680624127
vt 0.332845062 0.3275862038
vt 0.2959355116 0.5022554398
vt 0.4525996447 0.5022554398
vt 0.4156900942 0.3275862038
vt 0.4985351562 0.3275862038
vn 0 -1 0
vn 0 -1 0
vn 0 -1 0
vn 0 -1 0
vn -1 0 0
vn -1 0 0
vn -1 0 0
vn -1 0 0
vn 0 1 0
vn 0 1 0
vn 0 1 0
vn 0 1 0
vn 1 0 0
vn 1 0 0
vn 1 0 0
vn 1 0 0
vn -0.2079116851 0 -0.9781476259
vn -0.2079116851 0 -0.9781476259
vn -0.2079116851 0 -0.9781476259
vn -0.2079116851 0 -0.9781476259
vn -0.2079116851 0 0.9781476259
vn -0.2079116851 0 0.9781476259
vn -0.2079116851 0 0.9781476259
vn -0.2079116851 0 0.9781476259
vn 0 1 0
vn 0 1 0
vn 0 1 0
vn 0 1 0
vn 0 1 0
vn 0 1 0
vn 1 0 0
vn 1 0 0
vn 1 0 0
vn 1 0 0
vn 1 0 0
vn 1 0 0
vn 1 0 0
vn 1 0 0
vn 1 0 0
vn 1 0 0
vn 1 0 0
vn 1 0 0
vn 0 0 -1
vn 0 0 -1
vn 0 0 -1
vn 0 0 -1
vn 0 0 -1
vn 0 0 -1
vn 0 0 1
vn 0 0 1
vn 0 0 1
vn 0 0 1
vn 0 0 1
vn 0 0 1
vn 0 1 0
vn 0 1 0
vn 0 1 0
vn 0 1 0
vn 0 1 0
vn 0 1 0
vn 0 1 0
vn 0 1 0
f 2/2/2 4/4/4 3/3/3 1/1/1
f 6/6/6 8/8/8 7/7/7 5/5/5
f 10/10/10 9/9/9 11/11/11 12/12/12
f 14/14/14 13/13/13 15/15/15 16/16/16
f 18/18/18 17/17/17 19/19/19 20/20/20
f 22/22/22 21/21/21 23/23/23 24/24/24
f 26/26/26 29/29/29 25/25/25
f 28/28/28 30/30/30 29/29/29 26/26/26
f 28/28/28 27/27/27 30/30/30
f 32/32/32 34/34/34 33/33/33 31/31/31
f 36/36/36 38/38/38 37/37/37 35/35/35
f 40/40/40 42/42/42 41/41/41 39/39/39
f 47/47/47 43/43/43 44/44/44
f 46/46/46 43/43/43 47/47/47
f 45/45/45 48/48/48 47/47/47
f 44/44/44 45/45/45 47/47/47
f 50/50/50 54/54/54 49/49/49
f 51/51/51 49/49/49 54/54/54
f 52/52/52 54/54/54 50/50/50
f 51/51/51 54/54/54 53/53/53
f 59/59/59 55/55/55 58/58/58
f 59/59/59 60/60/60 57/57/57 56/56/56
f 55/55/55 59/59/59 56/56/56
f 60/60/60 61/61/61 62/62/62
f 62/62/62 57/57/57 60/60/60
