# Rhino

o object_1
v -52.5 -52.5 150
v -52.5 52.5 150
v 52.5 -52.5 150
v 52.5 52.5 150
v 52.5 -52.5 -150
v 52.5 52.5 -150
v -52.5 -52.5 -150
v -52.5 52.5 -150
v -52.5 -52.5 -150
v -52.5 52.5 -150
v -52.5 -52.5 150
v -52.5 52.5 150
v -52.5 -52.5 150
v 52.5 -52.5 150
v -52.5 -52.5 -150
v 52.5 -52.5 -150
v 52.5 -52.5 -52.5
v 52.5 -52.5 52.5
v -35.86106873 0 -30.59337616
v 37.5 0 -15
v -35.86106873 0 30.59337616
v 37.5 0 15
v -35.86106873 0 -30.59337616
v -35.86106873 0 30.59337616
v -35.86106873 52.5 -30.59337616
v -35.86106873 52.5 30.59337616
v -35.86106873 0 30.59337616
v 37.5 0 15
v -35.86106873 52.5 30.59337616
v 37.5 52.5 15
v 37.5 0 -15
v -35.86106873 0 -30.59337616
v 37.5 52.5 -15
v -35.86106873 52.5 -30.59337616
v 37.5 0 52.5
v 52.5 0 52.5
v 37.5 0 -52.5
v 52.5 0 -52.5
v 37.5 0 15
v 37.5 0 -15
v 37.5 0 52.5
v 37.5 0 15
v 37.5 52.5 52.5
v 37.5 52.5 15
v 37.5 0 -52.5
v 52.5 0 -52.5
v 37.5 52.5 -52.5
v 52.5 52.5 -52.5
v 52.5 0 52.5
v 37.5 0 52.5
v 52.5 52.5 52.5
v 37.5 52.5 52.5
v 37.5 0 -15
v 37.5 0 -52.5
v 37.5 52.5 -15
v 37.5 52.5 -52.5
v 52.5 -52.5 150
v 52.5 52.5 150
v 52.5 -52.5 -150
v 52.5 52.5 -150
v 52.5 52.5 52.5
v 52.5 0 -52.5
v 52.5 0 52.5
v 52.5 52.5 -52.5
v 52.5 -52.5 52.5
v 52.5 -52.5 -52.5
v -52.5 52.5 150
v -52.5 52.5 -150
v 52.5 52.5 150
v 52.5 52.5 -150
v 52.5 52.5 52.5
v 37.5 52.5 15
v -35.86106873 52.5 30.59337616
v -35.86106873 52.5 -30.59337616
v 37.5 52.5 -15
v 37.5 52.5 52.5
v 37.5 52.5 -52.5
v 52.5 52.5 -52.5
vt 0.2058823556 0.4117647111
vt 0 0.4117647111
vt 0.2058823556 0.6176470518
vt 0 0.6176470518
vt 0.1470588297 0.7058823705
vt 0.1470588297 0.9117646813
vt 0.3514763415 0.7058823705
vt 0.3514763415 0.9117646813
vt 0.9691233635 0
vt 0.7647058964 0
vt 0.9691233635 0.5882353187
vt 0.7647058964 0.5882353187
vt 0.7632410526 0.4117647111
vt 0.5588235259 0.4117647111
vt 0.7632410526 0.9985351562
vt 0.5588235259 0.9985351562
vt 0.5588235259 0.8078347445
vt 0.5588235259 0.6024650931
vt 0.4206754863 0.4117647111
vt 0.4206754863 0.5588235259
vt 0.5406494737 0.4117647111
vt 0.5406494737 0.5588235259
vt 0.3529411852 0.6791443825
vt 0.3529411852 0.7991183996
vt 0.4544174969 0.6791443825
vt 0.4544174969 0.7991183996
vt 0.1455939859 0.8529411554
vt 0 0.8529411554
vt 0.1455939859 0.9558823705
vt 0 0.9558823705
vt 0.1455939859 0.7058823705
vt 0 0.7058823705
vt 0.1455939859 0.8088235259
vt 0 0.8088235259
vt 0.3529411852 0.9465240836
vt 0.3529411852 0.9759358168
vt 0.5573586822 0.9465240836
vt 0.5573586822 0.9759358168
vt 0.4259474277 0.9465240836
vt 0.4843524396 0.9465240836
vt 0.4558823407 0.6791443825
vt 0.4558823407 0.7526738048
vt 0.5573586822 0.6791443825
vt 0.5573586822 0.7526738048
vt 0.4162200987 0.4117647111
vt 0.3868083358 0.4117647111
vt 0.4162200987 0.5147058964
vt 0.3868083358 0.5147058964
vt 0.3823529482 0.4117647111
vt 0.3529411852 0.4117647111
vt 0.3823529482 0.5147058964
vt 0.3529411852 0.5147058964
vt 0.4558823407 0.8128342032
vt 0.4558823407 0.8863636255
vt 0.5573586822 0.8128342032
vt 0.5573586822 0.8863636255
vt 0 0.2058823556
vt 0 0.4102998674
vt 0.5882353187 0.2058823556
vt 0.5882353187 0.4102998674
vt 0.1911764592 0.4102998674
vt 0.3970588446 0.308091104
vt 0.1911764592 0.308091104
vt 0.3970588446 0.4102998674
vt 0.1911764592 0.2058823556
vt 0.3970588446 0.2058823556
vt 0.5882353187 0
vt 0 0
vt 0.5882353187 0.2044175118
vt 0 0.2044175118
vt 0.3970588446 0.2044175118
vt 0.3235294223 0.1752150059
vt 0.3541046679 0.03239322454
vt 0.234130621 0.03239322454
vt 0.2647058666 0.1752150059
vt 0.3970588446 0.1752150059
vt 0.1911764592 0.1752150059
vt 0.1911764592 0.2044175118
vn 0 0 1
vn 0 0 1
vn 0 0 1
vn 0 0 1
vn 0 0 -1
vn 0 0 -1
vn 0 0 -1
vn 0 0 -1
vn -1 0 0
vn -1 0 0
vn -1 0 0
vn -1 0 0
vn 0 -1 0
vn 0 -1 0
vn 0 -1 0
vn 0 -1 0
vn 0 -1 0
vn 0 -1 0
vn 0 1 0
vn 0 1 0
vn 0 1 0
vn 0 1 0
vn 1 0 0
vn 1 0 0
vn 1 0 0
vn 1 0 0
vn -0.2079116851 0 -0.9781476259
vn -0.2079116851 0 -0.9781476259
vn -0.2079116851 0 -0.9781476259
vn -0.2079116851 0 -0.9781476259
vn -0.2079116851 0 0.9781476259
vn -0.2079116851 0 0.9781476259
vn -0.2079116851 0 0.9781476259
vn -0.2079116851 0 0.9781476259
vn 0 1 0
vn 0 1 0
vn 0 1 0
vn 0 1 0
vn 0 1 0
vn 0 1 0
vn 1 0 0
vn 1 0 0
vn 1 0 0
vn 1 0 0
vn 0 0 1
vn 0 0 1
vn 0 0 1
vn 0 0 1
vn 0 0 -1
vn 0 0 -1
vn 0 0 -1
vn 0 0 -1
vn 1 0 0
vn 1 0 0
vn 1 0 0
vn 1 0 0
vn 1 0 0
vn 1 0 0
vn 1 0 0
vn 1 0 0
vn 1 0 0
vn 1 0 0
vn 1 0 0
vn 1 0 0
vn 1 0 0
vn 1 0 0
vn 0 1 0
vn 0 1 0
vn 0 1 0
vn 0 1 0
vn 0 1 0
vn 0 1 0
vn 0 1 0
vn 0 1 0
vn 0 1 0
vn 0 1 0
vn 0 1 0
vn 0 1 0
f 2/2/2 1/1/1 3/3/3 4/4/4
f 6/6/6 5/5/5 7/7/7 8/8/8
f 10/10/10 9/9/9 11/11/11 12/12/12
f 14/14/14 13/13/13 18/18/18
f 13/13/13 15/15/15 17/17/17 18/18/18
f 16/16/16 17/17/17 15/15/15
f 20/20/20 19/19/19 21/21/21 22/22/22
f 24/24/24 23/23/23 25/25/25 26/26/26
f 28/28/28 27/27/27 29/29/29 30/30/30
f 32/32/32 31/31/31 33/33/33 34/34/34
f 36/36/36 39/39/39 35/35/35
f 40/40/40 39/39/39 36/36/36
f 38/38/38 37/37/37 40/40/40
f 36/36/36 38/38/38 40/40/40
f 42/42/42 44/44/44 43/43/43 41/41/41
f 46/46/46 48/48/48 47/47/47 45/45/45
f 50/50/50 52/52/52 51/51/51 49/49/49
f 54/54/54 56/56/56 55/55/55 53/53/53
f 63/63/63 57/57/57 65/65/65
f 61/61/61 58/58/58 63/63/63
f 57/57/57 63/63/63 58/58/58
f 63/63/63 65/65/65 66/66/66 62/62/62
f 62/62/62 66/66/66 59/59/59
f 64/64/64 62/62/62 60/60/60
f 59/59/59 60/60/60 62/62/62
f 73/73/73 67/67/67 76/76/76
f 69/69/69 76/76/76 67/67/67
f 72/72/72 73/73/73 76/76/76
f 74/74/74 67/67/67 73/73/73
f 74/74/74 77/77/77 68/68/68
f 67/67/67 74/74/74 68/68/68
f 69/69/69 71/71/71 76/76/76
f 70/70/70 77/77/77 78/78/78
f 68/68/68 77/77/77 70/70/70
f 74/74/74 75/75/75 77/77/77
