# Rhino

o object_1
v -15 0 -33.75
v 0 0 -33.75
v -15 0 -71.25
v 0 0 -71.25
v -15 0 -33.75
v -15 0 -71.25
v -15 52.5 -33.75
v -15 52.5 -71.25
v -15 52.5 -37.5
v -15 52.5 -67.5
v -15 0 -71.25
v 0 0 -71.25
v -15 52.5 -71.25
v 0 52.5 -71.25
v 0 0 -33.75
v -15 0 -33.75
v 0 52.5 -33.75
v -15 52.5 -33.75
v -88.36106873 52.5 -83.09337616
v -15 52.5 -67.5
v -88.36106873 52.5 -21.90662384
v -15 52.5 -37.5
v -88.36106873 52.5 -83.09337616
v -88.36106873 52.5 -21.90662384
v -88.36106873 105 -83.09337616
v -88.36106873 105 -21.90662384
v -88.36106873 52.5 -21.90662384
v -15 52.5 -37.5
v -88.36106873 105 -21.90662384
v -15 105 -37.5
v -15 52.5 -67.5
v -88.36106873 52.5 -83.09337616
v -15 105 -67.5
v -88.36106873 105 -83.09337616
v -88.36106873 105 -83.09337616
v -15 105 -67.5
v -88.36106873 105 -21.90662384
v -15 105 -37.5
v -15 52.5 0
v -15 52.5 -37.5
v -15 105 0
v -15 105 -37.5
v -15 52.5 -33.75
v -15 52.5 -105
v 0 52.5 -105
v -15 105 -105
v 0 105 -105
v 0 52.5 0
v -15 52.5 0
v 0 105 0
v -15 105 0
v -15 105 0
v 0 105 0
v -15 105 -105
v 0 105 -105
v -15 105 -37.5
v -15 105 -67.5
v -15 52.5 -67.5
v -15 52.5 -105
v -15 105 -67.5
v -15 105 -105
v -15 52.5 -71.25
v 0 0 0
v 200 0 0
v 0 0 -105
v 200 0 -105
v 0 0 -33.75
v 0 0 -71.25
v 0 0 -105
v 200 0 -105
v 0 105 -105
v 200 105 -105
v 0 52.5 -105
v 200 0 -105
v 200 0 0
v 200 105 -105
v 200 105 0
v 200 0 0
v 0 0 0
v 200 105 0
v 0 105 0
v 0 52.5 0
v 0 105 0
v 200 105 0
v 0 105 -105
v 200 105 -105
v 0 0 0
v 0 0 -33.75
v 0 52.5 0
v 0 52.5 -33.75
v -15 52.5 -71.25
v 0 52.5 -71.25
v -15 52.5 -105
v 0 52.5 -105
v -15 52.5 0
v 0 52.5 0
v -15 52.5 -33.75
v 0 52.5 -33.75
v 0 0 -71.25
v 0 0 -105
v 0 52.5 -71.25
v 0 52.5 -105
vt 0.03571428731 0.1880544722
vt 0 0.1880544722
vt 0.03571428731 0.2773401737
vt 0 0.2773401737
vt 0.1945488751 0.1880544722
vt 0.1052631587 0.1880544722
vt 0.1945488751 0.3130544722
vt 0.1052631587 0.3130544722
vt 0.1856203079 0.3130544722
vt 0.1141917333 0.3130544722
vt 0.25 0.3761089444
vt 0.25 0.4118232429
vt 0.375 0.3761089444
vt 0.375 0.4118232429
vt 0.2133458704 0
vt 0.1776315719 0
vt 0.2133458704 0.125
vt 0.1776315719 0.125
vt 0.4154135287 0.1880544722
vt 0.2368421108 0.1880544722
vt 0.4154135287 0.3337372243
vt 0.2368421108 0.3337372243
vt 0.3956827521 0.4683124721
vt 0.25 0.4683124721
vt 0.3956827521 0.5933124423
vt 0.25 0.5933124423
vt 0 0.3761089444
vt 0 0.5546803474
vt 0.1235351562 0.3761089444
vt 0.1235351562 0.5546803474
vt 0.125 0.6642449498
vt 0.125 0.8428163528
vt 0.2485351562 0.6642449498
vt 0.2485351562 0.8428163528
vt 0.4154135287 0
vt 0.2368421108 0
vt 0.4154135287 0.1456827521
vt 0.2368421108 0.1456827521
vt 0.125 0.5201769471
vt 0.125 0.6094626784
vt 0.2485351562 0.5201769471
vt 0.2485351562 0.6094626784
vt 0.125 0.6005340815
vt 0.1541353315 0
vt 0.1184210554 0
vt 0.1541353315 0.125
vt 0.1184210554 0.125
vt 0.08834586293 0.1880544722
vt 0.05263157934 0.1880544722
vt 0.08834586293 0.3130544722
vt 0.05263157934 0.3130544722
vt 0.25 0.4222106934
vt 0.25 0.4579249918
vt 0.4985351562 0.4222106934
vt 0.4985351562 0.4579249918
vt 0.3387625515 0.4222106934
vt 0.4097726047 0.4222106934
vt 0.125 0.3761089444
vt 0.125 0.4653946459
vt 0.2485351562 0.3761089444
vt 0.2485351562 0.4653946459
vt 0.125 0.3850375116
vt 0.75 0
vt 0.75 0.4747256339
vt 0.9985351562 0
vt 0.9985351562 0.4747256339
vt 0.8298863173 0
vt 0.918648839 0
vt 0.5 0
vt 0.5 0.4747256339
vt 0.7485351562 0
vt 0.7485351562 0.4747256339
vt 0.6242675781 0
vt 0.4985351562 0.629668653
vt 0.25 0.629668653
vt 0.4985351562 0.879668653
vt 0.25 0.879668653
vt 0.75 0.4761904776
vt 0.75 0.9509161115
vt 0.9985351562 0.4761904776
vt 0.9985351562 0.9509161115
vt 0.8742675781 0.9509161115
vt 0.5 0.4761904776
vt 0.5 0.9509161115
vt 0.7485351562 0.4761904776
vt 0.7485351562 0.9509161115
vt 0 0.8083129525
vt 0 0.8886700869
vt 0.1235351562 0.8083129525
vt 0.1235351562 0.8886700869
vt 0.094924815 0
vt 0.05921052769 0
vt 0.094924815 0.08035714179
vt 0.05921052769 0.08035714179
vt 0.03571428731 0
vt 0 0
vt 0.03571428731 0.08035714179
vt 0 0.08035714179
vt 0 0.6642449498
vt 0 0.7446020842
vt 0.1235351562 0.6642449498
vt 0.1235351562 0.7446020842
vn 0 -1 0
vn 0 -1 0
vn 0 -1 0
vn 0 -1 0
vn -1 0 0
vn -1 0 0
vn -1 0 0
vn -1 0 0
vn -1 0 0
vn -1 0 0
vn 0 0 -1
vn 0 0 -1
vn 0 0 -1
vn 0 0 -1
vn 0 0 1
vn 0 0 1
vn 0 0 1
vn 0 0 1
vn 0 -1 0
vn 0 -1 0
vn 0 -1 0
vn 0 -1 0
vn -1 0 0
vn -1 0 0
vn -1 0 0
vn -1 0 0
vn 0.2079116851 0 0.9781476259
vn 0.2079116851 0 0.9781476259
vn 0.2079116851 0 0.9781476259
vn 0.2079116851 0 0.9781476259
vn 0.2079116851 0 -0.9781476259
vn 0.2079116851 0 -0.9781476259
vn 0.2079116851 0 -0.9781476259
vn 0.2079116851 0 -0.9781476259
vn 0 1 0
vn 0 1 0
vn 0 1 0
vn 0 1 0
vn -1 0 0
vn -1 0 0
vn -1 0 0
vn -1 0 0
vn -1 0 0
vn 0 0 -1
vn 0 0 -1
vn 0 0 -1
vn 0 0 -1
vn 0 0 1
vn 0 0 1
vn 0 0 1
vn 0 0 1
vn 0 1 0
vn 0 1 0
vn 0 1 0
vn 0 1 0
vn 0 1 0
vn 0 1 0
vn -1 0 0
vn -1 0 0
vn -1 0 0
vn -1 0 0
vn -1 0 0
vn 0 -1 0
vn 0 -1 0
vn 0 -1 0
vn 0 -1 0
vn 0 -1 0
vn 0 -1 0
vn 0 0 -1
vn 0 0 -1
vn 0 0 -1
vn 0 0 -1
vn 0 0 -1
vn 1 0 0
vn 1 0 0
vn 1 0 0
vn 1 0 0
vn 0 0 1
vn 0 0 1
vn 0 0 1
vn 0 0 1
vn 0 0 1
vn 0 1 0
vn 0 1 0
vn 0 1 0
vn 0 1 0
vn -1 0 0
vn -1 0 0
vn -1 0 0
vn -1 0 0
vn 0 -1 0
vn 0 -1 0
vn 0 -1 0
vn 0 -1 0
vn 0 -1 0
vn 0 -1 0
vn 0 -1 0
vn 0 -1 0
vn -1 0 0
vn -1 0 0
vn -1 0 0
vn -1 0 0
f 2/2/2 1/1/1 3/3/3 4/4/4
f 6/6/6 5/5/5 9/9/9 10/10/10
f 7/7/7 9/9/9 5/5/5
f 6/6/6 10/10/10 8/8/8
f 12/12/12 11/11/11 13/13/13 14/14/14
f 16/16/16 15/15/15 17/17/17 18/18/18
f 20/20/20 22/22/22 21/21/21 19/19/19
f 24/24/24 26/26/26 25/25/25 23/23/23
f 28/28/28 30/30/30 29/29/29 27/27/27
f 32/32/32 34/34/34 33/33/33 31/31/31
f 36/36/36 35/35/35 37/37/37 38/38/38
f 43/43/43 39/39/39 41/41/41 42/42/42
f 40/40/40 43/43/43 42/42/42
f 45/45/45 44/44/44 46/46/46 47/47/47
f 49/49/49 48/48/48 50/50/50 51/51/51
f 53/53/53 56/56/56 52/52/52
f 57/57/57 56/56/56 53/53/53
f 55/55/55 54/54/54 57/57/57
f 53/53/53 55/55/55 57/57/57
f 60/60/60 62/62/62 58/58/58
f 59/59/59 62/62/62 60/60/60 61/61/61
f 64/64/64 63/63/63 67/67/67
f 68/68/68 64/64/64 67/67/67
f 66/66/66 68/68/68 65/65/65
f 64/64/64 68/68/68 66/66/66
f 73/73/73 70/70/70 69/69/69
f 72/72/72 73/73/73 71/71/71
f 70/70/70 73/73/73 72/72/72
f 75/75/75 74/74/74 76/76/76 77/77/77
f 82/82/82 79/79/79 78/78/78
f 81/81/81 82/82/82 80/80/80
f 78/78/78 80/80/80 82/82/82
f 84/84/84 86/86/86 85/85/85 83/83/83
f 88/88/88 87/87/87 89/89/89 90/90/90
f 92/92/92 91/91/91 93/93/93 94/94/94
f 96/96/96 95/95/95 97/97/97 98/98/98
f 100/100/100 99/99/99 101/101/101 102/102/102
