# Rhino

o object_1
v -35.86106873 0 -30.59337616
v 37.5 0 -15
v -35.86106873 0 30.59337616
v 37.5 0 15
v -35.86106873 0 -30.59337616
v -35.86106873 0 30.59337616
v -35.86106873 52.5 -30.59337616
v -35.86106873 52.5 30.59337616
v -35.86106873 0 30.59337616
v 37.5 0 15
v -35.86106873 52.5 30.59337616
v 37.5 52.5 15
v 37.5 0 -15
v -35.86106873 0 -30.59337616
v 37.5 52.5 -15
v -35.86106873 52.5 -30.59337616
v -35.86106873 52.5 -30.59337616
v 37.5 52.5 -15
v -35.86106873 52.5 30.59337616
v 37.5 52.5 15
v 37.5 0 52.5
v 52.5 0 52.5
v 37.5 0 -52.5
v 52.5 0 -52.5
v 37.5 0 15
v 37.5 0 -15
v 37.5 0 52.5
v 37.5 0 15
v 37.5 52.5 52.5
v 37.5 52.5 15
v 37.5 0 -52.5
v 52.5 0 -52.5
v 37.5 52.5 -52.5
v 52.5 52.5 -52.5
v 52.5 0 52.5
v 37.5 0 52.5
v 52.5 52.5 52.5
v 37.5 52.5 52.5
v 37.5 52.5 52.5
v 52.5 52.5 52.5
v 37.5 52.5 -52.5
v 52.5 52.5 -52.5
v 37.5 52.5 15
v 37.5 52.5 -15
v 37.5 0 -15
v 37.5 0 -52.5
v 37.5 52.5 -15
v 37.5 52.5 -52.5
v 52.5 -52.5 52.5
v 252.5 -52.5 52.5
v 52.5 -52.5 -52.5
v 252.5 -52.5 -52.5
v 52.5 -52.5 -52.5
v 252.5 -52.5 -52.5
v 52.5 52.5 -52.5
v 252.5 52.5 -52.5
v 52.5 0 -52.5
v 252.5 -52.5 -52.5
v 252.5 -52.5 52.5
v 252.5 52.5 -52.5
v 252.5 52.5 52.5
v 252.5 -52.5 52.5
v 52.5 -52.5 52.5
v 252.5 52.5 52.5
v 52.5 52.5 52.5
v 52.5 0 52.5
v 52.5 52.5 52.5
v 252.5 52.5 52.5
v 52.5 52.5 -52.5
v 252.5 52.5 -52.5
v 52.5 -52.5 52.5
v 52.5 -52.5 -52.5
v 52.5 0 52.5
v 52.5 0 -52.5
vt 0.4016781747 0.1667995453
vt 0.2267252505 0.1667995453
vt 0.4016781747 0.3095302284
vt 0.2267252505 0.3095302284
vt 0 0.5966798067
vt 0 0.73941046
vt 0.1210022047 0.5966798067
vt 0.1210022047 0.73941046
vt 0.2449340969 0.3611980677
vt 0.2449340969 0.5361509919
vt 0.3659362793 0.3611980677
vt 0.3659362793 0.5361509919
vt 0.1224670485 0.5966798067
vt 0.1224670485 0.771632731
vt 0.2434692532 0.5966798067
vt 0.2434692532 0.771632731
vt 0.367401123 0.3611980677
vt 0.367401123 0.5361509919
vt 0.5086669922 0.3611980677
vt 0.5086669922 0.5361509919
vt 0.2050345242 0
vt 0.1700439453 0
vt 0.2050345242 0.2449340969
vt 0.1700439453 0.2449340969
vt 0.2050345242 0.08747646213
vt 0.2050345242 0.1574576348
vt 0.4559049904 0
vt 0.3684285283 0
vt 0.4559049904 0.1224670485
vt 0.3684285283 0.1224670485
vt 0.09167189896 0
vt 0.05668131262 0
vt 0.09167189896 0.1224670485
vt 0.05668131262 0.1224670485
vt 0.03499058262 0
vt 0 0
vt 0.03499058262 0.1224670485
vt 0 0.1224670485
vt 0.1483532041 0
vt 0.1133626252 0
vt 0.1483532041 0.2449340969
vt 0.1133626252 0.2449340969
vt 0.1483532041 0.08747646213
vt 0.1483532041 0.1574576348
vt 0.3142017126 0
vt 0.2267252505 0
vt 0.3142017126 0.1224670485
vt 0.2267252505 0.1224670485
vt 0.755065918 0
vt 0.755065918 0.4650762677
vt 0.9985351562 0
vt 0.9985351562 0.4650762677
vt 0.5101318359 0
vt 0.5101318359 0.4650762677
vt 0.7536010742 0
vt 0.7536010742 0.4650762677
vt 0.6318664551 0
vt 0.4898681939 0.5994831324
vt 0.2449340969 0.5994831324
vt 0.4898681939 0.8444172144
vt 0.2449340969 0.8444172144
vt 0.755065918 0.4665411115
vt 0.755065918 0.9316173792
vt 0.9985351562 0.4665411115
vt 0.9985351562 0.9316173792
vt 0.8768005371 0.9316173792
vt 0.5101318359 0.4665411115
vt 0.5101318359 0.9316173792
vt 0.7536010742 0.4665411115
vt 0.7536010742 0.9316173792
vt 0.2434692532 0.3611980677
vt 0 0.3611980677
vt 0.2434692532 0.4836651385
vt 0 0.4836651385
vn 0 -1 0
vn 0 -1 0
vn 0 -1 0
vn 0 -1 0
vn -1 0 0
vn -1 0 0
vn -1 0 0
vn -1 0 0
vn 0.2079116851 0 0.9781476259
vn 0.2079116851 0 0.9781476259
vn 0.2079116851 0 0.9781476259
vn 0.2079116851 0 0.9781476259
vn 0.2079116851 0 -0.9781476259
vn 0.2079116851 0 -0.9781476259
vn 0.2079116851 0 -0.9781476259
vn 0.2079116851 0 -0.9781476259
vn 0 1 0
vn 0 1 0
vn 0 1 0
vn 0 1 0
vn 0 -1 0
vn 0 -1 0
vn 0 -1 0
vn 0 -1 0
vn 0 -1 0
vn 0 -1 0
vn -1 0 0
vn -1 0 0
vn -1 0 0
vn -1 0 0
vn 0 0 -1
vn 0 0 -1
vn 0 0 -1
vn 0 0 -1
vn 0 0 1
vn 0 0 1
vn 0 0 1
vn 0 0 1
vn 0 1 0
vn 0 1 0
vn 0 1 0
vn 0 1 0
vn 0 1 0
vn 0 1 0
vn -1 0 0
vn -1 0 0
vn -1 0 0
vn -1 0 0
vn 0 -1 0
vn 0 -1 0
vn 0 -1 0
vn 0 -1 0
vn 0 0 -1
vn 0 0 -1
vn 0 0 -1
vn 0 0 -1
vn 0 0 -1
vn 1 0 0
vn 1 0 0
vn 1 0 0
vn 1 0 0
vn 0 0 1
vn 0 0 1
vn 0 0 1
vn 0 0 1
vn 0 0 1
vn 0 1 0
vn 0 1 0
vn 0 1 0
vn 0 1 0
vn -1 0 0
vn -1 0 0
vn -1 0 0
vn -1 0 0
f 2/2/2 4/4/4 3/3/3 1/1/1
f 6/6/6 8/8/8 7/7/7 5/5/5
f 10/10/10 12/12/12 11/11/11 9/9/9
f 14/14/14 16/16/16 15/15/15 13/13/13
f 18/18/18 17/17/17 19/19/19 20/20/20
f 22/22/22 21/21/21 25/25/25
f 26/26/26 22/22/22 25/25/25
f 24/24/24 26/26/26 23/23/23
f 22/22/22 26/26/26 24/24/24
f 28/28/28 27/27/27 29/29/29 30/30/30
f 32/32/32 31/31/31 33/33/33 34/34/34
f 36/36/36 35/35/35 37/37/37 38/38/38
f 40/40/40 43/43/43 39/39/39
f 44/44/44 43/43/43 40/40/40
f 42/42/42 41/41/41 44/44/44
f 40/40/40 42/42/42 44/44/44
f 46/46/46 45/45/45 47/47/47 48/48/48
f 50/50/50 49/49/49 51/51/51 52/52/52
f 57/57/57 54/54/54 53/53/53
f 56/56/56 57/57/57 55/55/55
f 54/54/54 57/57/57 56/56/56
f 59/59/59 58/58/58 60/60/60 61/61/61
f 66/66/66 63/63/63 62/62/62
f 65/65/65 66/66/66 64/64/64
f 62/62/62 64/64/64 66/66/66
f 68/68/68 70/70/70 69/69/69 67/67/67
f 72/72/72 71/71/71 73/73/73 74/74/74
