# Rhino

o object_1
v 0 0 0
v -200 0 0
v 0 0 -105
v -200 0 -105
v 0 0 -33.75
v -15 0 -33.75
v -15 0 -71.25
v 0 0 -71.25
v -200 0 -105
v -200 0 0
v -200 105 -105
v -200 105 0
v -88.36106873 52.5 -83.09337616
v -15 52.5 -67.5
v -88.36106873 52.5 -21.90662384
v -15 52.5 -37.5
v -88.36106873 52.5 -83.09337616
v -88.36106873 52.5 -21.90662384
v -88.36106873 105 -83.09337616
v -88.36106873 105 -21.90662384
v -88.36106873 52.5 -21.90662384
v -15 52.5 -37.5
v -88.36106873 105 -21.90662384
v -15 105 -37.5
v -15 52.5 -67.5
v -88.36106873 52.5 -83.09337616
v -15 105 -67.5
v -88.36106873 105 -83.09337616
v -15 52.5 0
v -15 52.5 -37.5
v -15 105 0
v -15 105 -37.5
v -15 52.5 -33.75
v -15 52.5 -67.5
v -15 52.5 -105
v -15 105 -67.5
v -15 105 -105
v -15 52.5 -71.25
v 0 0 0
v 0 0 -33.75
v 0 52.5 0
v 0 52.5 -33.75
v 0 0 -105
v -200 0 -105
v -200 105 -105
v 0 52.5 -105
v -15 52.5 -105
v -15 105 -105
v -200 0 0
v 0 0 0
v -200 105 0
v 0 52.5 0
v -15 105 0
v -15 52.5 0
v -15 105 0
v -200 105 0
v -200 105 -105
v -15 105 -37.5
v -88.36106873 105 -21.90662384
v -88.36106873 105 -83.09337616
v -15 105 -67.5
v -15 105 -105
v -15 0 -33.75
v -15 0 -71.25
v -15 52.5 -33.75
v -15 52.5 -71.25
v -15 52.5 -37.5
v -15 52.5 -67.5
v -15 0 -71.25
v 0 0 -71.25
v -15 52.5 -71.25
v 0 52.5 -71.25
v 0 0 -33.75
v -15 0 -33.75
v 0 52.5 -33.75
v -15 52.5 -33.75
v -15 52.5 0
v 0 52.5 0
v -15 52.5 -33.75
v 0 52.5 -33.75
v -15 52.5 -71.25
v 0 52.5 -71.25
v -15 52.5 -105
v 0 52.5 -105
v 0 0 -71.25
v 0 0 -105
v 0 52.5 -71.25
v 0 52.5 -105
vt 0 0.4395604432
vt 0 0.8791208863
vt 0.2293043882 0.4395604432
vt 0.2293043882 0.8791208863
vt 0.07370498031 0.4395604432
vt 0.07370498031 0.4725274742
vt 0.1555994004 0.4725274742
vt 0.1555994004 0.4395604432
vt 0.4615384638 0.4395604432
vt 0.2307692319 0.4395604432
vt 0.4615384638 0.6688648462
vt 0.2307692319 0.6688648462
vt 0.967032969 0.4161231816
vt 0.802197814 0.4161231816
vt 0.967032969 0.550599575
vt 0.802197814 0.550599575
vt 0.8846153617 0.6586110592
vt 0.8846153617 0.7930874228
vt 0.9985351562 0.6586110592
vt 0.9985351562 0.7930874228
vt 0.9515190721 0
vt 0.786683917 0
vt 0.9515190721 0.115384616
vt 0.786683917 0.115384616
vt 0.8007329702 0.6586110592
vt 0.637362659 0.6586110592
vt 0.8007329702 0.7739956379
vt 0.637362659 0.7739956379
vt 0.8831505179 0.6586110592
vt 0.802197814 0.6586110592
vt 0.8831505179 0.7739956379
vt 0.802197814 0.7739956379
vt 0.8102930784 0.6586110592
vt 0.9757595062 0.2080615908
vt 0.8933419585 0.2080615908
vt 0.9757595062 0.3234462142
vt 0.8933419585 0.3234462142
vt 0.9675177932 0.2080615908
vt 0.7939560413 0.4161231816
vt 0.7197802067 0.4161231816
vt 0.7939560413 0.5315077901
vt 0.7197802067 0.5315077901
vt 0.3186813295 0
vt 0.3186813295 0.4380955994
vt 0.5494505763 0.4380955994
vt 0.434065938 0
vt 0.434065938 0.03285717219
vt 0.5494505763 0.03285717219
vt 0 0
vt 0 0.4380955994
vt 0.2307692319 0
vt 0.115384616 0.4380955994
vt 0.2307692319 0.4052384198
vt 0.115384616 0.4052384198
vt 0.6358978152 0.67032969
vt 0.2307692319 0.67032969
vt 0.2307692319 0.8996340632
vt 0.6358978152 0.7522240877
vt 0.4752455354 0.718170464
vt 0.4752455354 0.8517932296
vt 0.6358978152 0.8177396059
vt 0.6358978152 0.8996340632
vt 0.8691014647 0.2080615908
vt 0.786683917 0.2080615908
vt 0.8691014647 0.3234462142
vt 0.786683917 0.3234462142
vt 0.8608597517 0.3234462142
vt 0.7949256897 0.3234462142
vt 0.637362659 0.3120923638
vt 0.637362659 0.3450594246
vt 0.7527472377 0.3120923638
vt 0.7527472377 0.3450594246
vt 0.637362659 0.2080615908
vt 0.637362659 0.2410286218
vt 0.7527472377 0.2080615908
vt 0.7527472377 0.2410286218
vt 0.637362659 0.1040307954
vt 0.637362659 0.1369978189
vt 0.711538434 0.1040307954
vt 0.711538434 0.1369978189
vt 0.637362659 0
vt 0.637362659 0.03296703473
vt 0.711538434 0
vt 0.711538434 0.03296703473
vt 0.711538434 0.4161231816
vt 0.637362659 0.4161231816
vt 0.711538434 0.5315077901
vt 0.637362659 0.5315077901
vn 0 -1 0
vn 0 -1 0
vn 0 -1 0
vn 0 -1 0
vn 0 -1 0
vn 0 -1 0
vn 0 -1 0
vn 0 -1 0
vn -1 0 0
vn -1 0 0
vn -1 0 0
vn -1 0 0
vn 0 1 0
vn 0 1 0
vn 0 1 0
vn 0 1 0
vn 1 0 0
vn 1 0 0
vn 1 0 0
vn 1 0 0
vn -0.2079116851 0 -0.9781476259
vn -0.2079116851 0 -0.9781476259
vn -0.2079116851 0 -0.9781476259
vn -0.2079116851 0 -0.9781476259
vn -0.2079116851 0 0.9781476259
vn -0.2079116851 0 0.9781476259
vn -0.2079116851 0 0.9781476259
vn -0.2079116851 0 0.9781476259
vn 1 0 0
vn 1 0 0
vn 1 0 0
vn 1 0 0
vn 1 0 0
vn 1 0 0
vn 1 0 0
vn 1 0 0
vn 1 0 0
vn 1 0 0
vn 1 0 0
vn 1 0 0
vn 1 0 0
vn 1 0 0
vn 0 0 -1
vn 0 0 -1
vn 0 0 -1
vn 0 0 -1
vn 0 0 -1
vn 0 0 -1
vn 0 0 1
vn 0 0 1
vn 0 0 1
vn 0 0 1
vn 0 0 1
vn 0 0 1
vn 0 1 0
vn 0 1 0
vn 0 1 0
vn 0 1 0
vn 0 1 0
vn 0 1 0
vn 0 1 0
vn 0 1 0
vn 1 0 0
vn 1 0 0
vn 1 0 0
vn 1 0 0
vn 1 0 0
vn 1 0 0
vn 0 0 1
vn 0 0 1
vn 0 0 1
vn 0 0 1
vn 0 0 -1
vn 0 0 -1
vn 0 0 -1
vn 0 0 -1
vn 0 1 0
vn 0 1 0
vn 0 1 0
vn 0 1 0
vn 0 1 0
vn 0 1 0
vn 0 1 0
vn 0 1 0
vn 1 0 0
vn 1 0 0
vn 1 0 0
vn 1 0 0
f 6/6/6 5/5/5 1/1/1
f 7/7/7 6/6/6 2/2/2
f 1/1/1 2/2/2 6/6/6
f 7/7/7 3/3/3 8/8/8
f 2/2/2 4/4/4 7/7/7
f 3/3/3 7/7/7 4/4/4
f 10/10/10 12/12/12 11/11/11 9/9/9
f 14/14/14 13/13/13 15/15/15 16/16/16
f 18/18/18 17/17/17 19/19/19 20/20/20
f 22/22/22 21/21/21 23/23/23 24/24/24
f 26/26/26 25/25/25 27/27/27 28/28/28
f 33/33/33 32/32/32 31/31/31 29/29/29
f 30/30/30 32/32/32 33/33/33
f 36/36/36 34/34/34 38/38/38
f 35/35/35 37/37/37 36/36/36 38/38/38
f 40/40/40 42/42/42 41/41/41 39/39/39
f 47/47/47 43/43/43 44/44/44
f 46/46/46 43/43/43 47/47/47
f 45/45/45 48/48/48 47/47/47
f 44/44/44 45/45/45 47/47/47
f 50/50/50 54/54/54 49/49/49
f 51/51/51 49/49/49 54/54/54
f 52/52/52 54/54/54 50/50/50
f 51/51/51 54/54/54 53/53/53
f 59/59/59 55/55/55 58/58/58
f 59/59/59 60/60/60 57/57/57 56/56/56
f 55/55/55 59/59/59 56/56/56
f 60/60/60 61/61/61 62/62/62
f 62/62/62 57/57/57 60/60/60
f 64/64/64 68/68/68 67/67/67 63/63/63
f 65/65/65 63/63/63 67/67/67
f 64/64/64 66/66/66 68/68/68
f 70/70/70 72/72/72 71/71/71 69/69/69
f 74/74/74 76/76/76 75/75/75 73/73/73
f 78/78/78 80/80/80 79/79/79 77/77/77
f 82/82/82 84/84/84 83/83/83 81/81/81
f 86/86/86 88/88/88 87/87/87 85/85/85
