# Rhino

o object_1
v -62.489879608154297 105 1.524457573890686
v -57.5 105 25
v -22.51011848449707 105 1.524457573890686
v -27.5 105 25
v -62.489879608154297 105 1.524457573890686
v -22.51011848449707 105 1.524457573890686
v -62.489879608154297 0 1.524457573890686
v -22.51011848449707 0 1.524457573890686
v -22.51011848449707 105 1.524457573890686
v -27.5 105 25
v -22.51011848449707 0 1.524457573890686
v -27.5 0 25
v -57.5 105 25
v -62.489879608154297 105 1.524457573890686
v -57.5 0 25
v -62.489879608154297 0 1.524457573890686
v -62.489879608154297 0 1.524457573890686
v -57.5 0 25
v -22.51011848449707 0 1.524457573890686
v -27.5 0 25
v -87 0 25
v -87 105 25
v -87 0 33
v -87 105 33
v 2 0 33
v 2 105 33
v 2 0 25
v 2 105 25
v 2 0 25
v 2 105 25
v -27.5 0 25
v -27.5 105 25
v -87 0 25
v -87 0 33
v 2 0 25
v 2 0 33
v -57.5 0 25
v -27.5 0 25
v -87 105 25
v 2 105 25
v -87 105 33
v 2 105 33
v -27.5 105 25
v -57.5 105 25
v -95 0 33
v -95 0 233
v 10 0 33
v 10 0 233
v -87 0 33
v 2 0 33
v 2 0 33
v 10 0 33
v 2 105 33
v 10 105 33
v 10 0 33
v 10 0 233
v 10 105 33
v 10 105 233
v 10 0 233
v -95 0 233
v 10 105 233
v -95 105 233
v -95 0 233
v -95 0 33
v -95 105 233
v -95 105 33
v -95 105 33
v -95 105 233
v 10 105 33
v 10 105 233
v -87 105 33
v 2 105 33
v -95 0 33
v -87 0 33
v -95 105 33
v -87 105 33
v -57.5 0 25
v -57.5 105 25
v -87 0 25
v -87 105 25
vt 0.1467272937297821 0.51241075992584229
vt 0.088190712034702301 0.51241075992584229
vt 0.1467272937297821 0.60992240905761719
vt 0.088190712034702301 0.60992240905761719
vt 0.19842910766601562 0.63497161865234375
vt 0.19842910766601562 0.73248326778411865
vt 0.45452666282653809 0.63497161865234375
vt 0.45452666282653809 0.73248326778411865
vt 0.19842910766601562 0.88268709182739258
vt 0.19842910766601562 0.94122368097305298
vt 0.45452666282653809 0.88268709182739258
vt 0.45452666282653809 0.94122368097305298
vt 0.19842910766601562 0.789764404296875
vt 0.19842910766601562 0.8483009934425354
vt 0.45452666282653809 0.789764404296875
vt 0.45452666282653809 0.8483009934425354
vt 0.088190712034702301 0.40653672814369202
vt 0.088190712034702301 0.46507328748703003
vt 0.18570232391357422 0.40653672814369202
vt 0.18570232391357422 0.46507328748703003
vt 0.066143035888671875 0.40653672814369202
vt 0.066143035888671875 0.66263425350189209
vt 0.085655227303504944 0.40653672814369202
vt 0.085655227303504944 0.66263425350189209
vt 0.044095356017351151 0.40653672814369202
vt 0.044095356017351151 0.66263425350189209
vt 0.063607551157474518 0.40653672814369202
vt 0.063607551157474518 0.66263425350189209
vt 0.45452666282653809 0.52075415849685669
vt 0.19842910766601562 0.52075415849685669
vt 0.45452666282653809 0.5927053689956665
vt 0.19842910766601562 0.5927053689956665
vt 0.041559875011444092 0.40653672814369202
vt 0.022047678008675575 0.40653672814369202
vt 0.041559875011444092 0.62360990047454834
vt 0.022047678008675575 0.62360990047454834
vt 0.041559875011444092 0.47848793864250183
vt 0.041559875011444092 0.55165868997573853
vt 0 0.40653672814369202
vt 0 0.62360990047454834
vt 0.019512195140123367 0.40653672814369202
vt 0.019512195140123367 0.62360990047454834
vt 0 0.55165868997573853
vt 0 0.47848793864250183
vt 0.48634004592895508 0
vt 0 0
vt 0.48634004592895508 0.25609755516052246
vt 0 0.25609755516052246
vt 0.48634004592895508 0.019512195140123367
vt 0.48634004592895508 0.23658536374568939
vt 0.19589361548423767 0.51241075992584229
vt 0.1763814240694046 0.51241075992584229
vt 0.19589361548423767 0.76850831508636475
vt 0.1763814240694046 0.76850831508636475
vt 0.74390244483947754 0.48780488967895508
vt 0.74390244483947754 0.97414493560791016
vt 0.99853515625 0.48780488967895508
vt 0.99853515625 0.97414493560791016
vt 0.48780488967895508 0
vt 0.48780488967895508 0.25609755516052246
vt 0.74243760108947754 0
vt 0.74243760108947754 0.25609755516052246
vt 0.48780488967895508 0.48780488967895508
vt 0.48780488967895508 0.97414493560791016
vt 0.74243760108947754 0.48780488967895508
vt 0.74243760108947754 0.97414493560791016
vt 0.74390244483947754 0
vt 0.74390244483947754 0.48634004592895508
vt 0.99853515625 0
vt 0.99853515625 0.48634004592895508
vt 0.76330304145812988 0
vt 0.97913455963134766 0
vt 0.17384594678878784 0.51241075992584229
vt 0.15433374047279358 0.51241075992584229
vt 0.17384594678878784 0.76850831508636475
vt 0.15433374047279358 0.76850831508636475
vt 0.45452666282653809 0.40653672814369202
vt 0.19842910766601562 0.40653672814369202
vt 0.45452666282653809 0.47848793864250183
vt 0.19842910766601562 0.47848793864250183
vn 0 1 0
vn 0 1 0
vn 0 1 0
vn 0 1 0
vn 0 0 -1
vn 0 0 -1
vn 0 0 -1
vn 0 0 -1
vn 0.97814762592315674 0 0.20791168510913849
vn 0.97814762592315674 0 0.20791168510913849
vn 0.97814762592315674 0 0.20791168510913849
vn 0.97814762592315674 0 0.20791168510913849
vn -0.97814762592315674 0 0.20791168510913849
vn -0.97814762592315674 0 0.20791168510913849
vn -0.97814762592315674 0 0.20791168510913849
vn -0.97814762592315674 0 0.20791168510913849
vn 0 -1 0
vn 0 -1 0
vn 0 -1 0
vn 0 -1 0
vn -1 0 0
vn -1 0 0
vn -1 0 0
vn -1 0 0
vn 1 0 0
vn 1 0 0
vn 1 0 0
vn 1 0 0
vn 0 0 -1
vn 0 0 -1
vn 0 0 -1
vn 0 0 -1
vn 0 -1 0
vn 0 -1 0
vn 0 -1 0
vn 0 -1 0
vn 0 -1 0
vn 0 -1 0
vn 0 1 0
vn 0 1 0
vn 0 1 0
vn 0 1 0
vn 0 1 0
vn 0 1 0
vn 0 -1 0
vn 0 -1 0
vn 0 -1 0
vn 0 -1 0
vn 0 -1 0
vn 0 -1 0
vn 0 0 -1
vn 0 0 -1
vn 0 0 -1
vn 0 0 -1
vn 1 0 0
vn 1 0 0
vn 1 0 0
vn 1 0 0
vn 0 0 1
vn 0 0 1
vn 0 0 1
vn 0 0 1
vn -1 0 0
vn -1 0 0
vn -1 0 0
vn -1 0 0
vn 0 1 0
vn 0 1 0
vn 0 1 0
vn 0 1 0
vn 0 1 0
vn 0 1 0
vn 0 0 -1
vn 0 0 -1
vn 0 0 -1
vn 0 0 -1
vn 0 0 -1
vn 0 0 -1
vn 0 0 -1
vn 0 0 -1
f 2/2/2 4/4/4 3/3/3 1/1/1
f 6/6/6 8/8/8 7/7/7 5/5/5
f 10/10/10 12/12/12 11/11/11 9/9/9
f 14/14/14 16/16/16 15/15/15 13/13/13
f 18/18/18 17/17/17 19/19/19 20/20/20
f 22/22/22 21/21/21 23/23/23 24/24/24
f 26/26/26 25/25/25 27/27/27 28/28/28
f 30/30/30 29/29/29 31/31/31 32/32/32
f 34/34/34 33/33/33 37/37/37
f 38/38/38 34/34/34 37/37/37
f 36/36/36 38/38/38 35/35/35
f 34/34/34 38/38/38 36/36/36
f 41/41/41 44/44/44 39/39/39
f 42/42/42 43/43/43 44/44/44
f 40/40/40 43/43/43 42/42/42
f 41/41/41 42/42/42 44/44/44
f 46/46/46 45/45/45 49/49/49
f 49/49/49 50/50/50 48/48/48 46/46/46
f 48/48/48 50/50/50 47/47/47
f 52/52/52 51/51/51 53/53/53 54/54/54
f 56/56/56 55/55/55 57/57/57 58/58/58
f 60/60/60 59/59/59 61/61/61 62/62/62
f 64/64/64 63/63/63 65/65/65 66/66/66
f 68/68/68 71/71/71 67/67/67
f 71/71/71 68/68/68 70/70/70 72/72/72
f 70/70/70 69/69/69 72/72/72
f 74/74/74 73/73/73 75/75/75 76/76/76
f 78/78/78 77/77/77 79/79/79 80/80/80
