# Rhino

o object_1
v -127.5 0 32.5
v -127.5 300 32.5
v 42.5 0 32.5
v 42.5 300 32.5
v -87 0 32.5
v -87 105 32.5
v 2 105 32.5
v 2 0 32.5
v 42.5 0 32.5
v 42.5 300 32.5
v 42.5 0 -137.5
v 42.5 300 -137.5
v 42.5 0 -8
v 42.5 105 -8
v 42.5 105 -97
v 42.5 0 -97
v 42.5 0 -137.5
v 42.5 300 -137.5
v -127.5 0 -137.5
v -127.5 300 -137.5
v 2 0 -137.5
v 2 105 -137.5
v -87 105 -137.5
v -87 0 -137.5
v -127.5 0 -137.5
v -127.5 300 -137.5
v -127.5 0 32.5
v -127.5 300 32.5
v -127.5 0 -97
v -127.5 105 -97
v -127.5 105 -8
v -127.5 0 -8
v -127.5 300 32.5
v -127.5 300 -137.5
v 42.5 300 32.5
v 42.5 300 -137.5
v 11.524457931518555 105 -32.510120391845703
v 35 105 -37.5
v 11.524457931518555 105 -72.489883422851562
v 35 105 -67.5
v 11.524457931518555 105 -32.510120391845703
v 11.524457931518555 105 -72.489883422851562
v 11.524457931518555 0 -32.510120391845703
v 11.524457931518555 0 -72.489883422851562
v 11.524457931518555 105 -72.489883422851562
v 35 105 -67.5
v 11.524457931518555 0 -72.489883422851562
v 35 0 -67.5
v 35 105 -37.5
v 11.524457931518555 105 -32.510120391845703
v 35 0 -37.5
v 11.524457931518555 0 -32.510120391845703
v 35 0 -8
v 35 105 -8
v 42.5 105 -8
v 42.5 0 -8
v 42.5 0 -97
v 42.5 105 -97
v 35 0 -97
v 35 105 -97
v 35 0 -97
v 35 105 -97
v 35 0 -67.5
v 35 105 -67.5
v 35 105 -8
v 35 105 -97
v 42.5 105 -8
v 35 105 -67.5
v 35 105 -37.5
v 42.5 105 -97
v 35 0 -37.5
v 35 105 -37.5
v 35 0 -8
v 35 105 -8
v -22.51011848449707 105 -106.52445983886719
v -27.5 105 -130
v -62.489879608154297 105 -106.52445983886719
v -57.5 105 -130
v -22.51011848449707 105 -106.52445983886719
v -62.489879608154297 105 -106.52445983886719
v -22.51011848449707 0 -106.52445983886719
v -62.489879608154297 0 -106.52445983886719
v -62.489879608154297 105 -106.52445983886719
v -57.5 105 -130
v -62.489879608154297 0 -106.52445983886719
v -57.5 0 -130
v -27.5 105 -130
v -22.51011848449707 105 -106.52445983886719
v -27.5 0 -130
v -22.51011848449707 0 -106.52445983886719
v 2 0 -130
v 2 105 -130
v 2 0 -137.5
v 2 105 -137.5
v -87 0 -137.5
v -87 0 -130
v -87 105 -130
v -87 105 -137.5
v -87 0 -130
v -87 105 -130
v -57.5 0 -130
v -57.5 105 -130
v 2 105 -130
v -87 105 -130
v 2 105 -137.5
v -57.5 105 -130
v -27.5 105 -130
v -87 105 -137.5
v -27.5 0 -130
v -27.5 105 -130
v 2 0 -130
v 2 105 -130
v -96.524459838867188 105 -72.489883422851562
v -120 105 -67.5
v -96.524459838867188 105 -32.510120391845703
v -120 105 -37.5
v -96.524459838867188 105 -72.489883422851562
v -96.524459838867188 105 -32.510120391845703
v -96.524459838867188 0 -72.489883422851562
v -96.524459838867188 0 -32.510120391845703
v -96.524459838867188 105 -32.510120391845703
v -120 105 -37.5
v -96.524459838867188 0 -32.510120391845703
v -120 0 -37.5
v -120 105 -67.5
v -96.524459838867188 105 -72.489883422851562
v -120 0 -67.5
v -96.524459838867188 0 -72.489883422851562
v -120 0 -97
v -120 105 -97
v -127.5 0 -97
v -127.5 105 -97
v -127.5 105 -8
v -120 0 -8
v -120 105 -8
v -127.5 0 -8
v -120 0 -8
v -120 105 -8
v -120 0 -37.5
v -120 105 -37.5
v -120 105 -97
v -120 105 -8
v -127.5 105 -8
v -120 105 -37.5
v -120 105 -67.5
v -127.5 105 -97
v -120 0 -67.5
v -120 105 -67.5
v -120 0 -97
v -120 105 -97
v -62.489879608154297 105 1.524457573890686
v -57.5 105 25
v -22.51011848449707 105 1.524457573890686
v -27.5 105 25
v -62.489879608154297 105 1.524457573890686
v -22.51011848449707 105 1.524457573890686
v -62.489879608154297 0 1.524457573890686
v -22.51011848449707 0 1.524457573890686
v -22.51011848449707 105 1.524457573890686
v -27.5 105 25
v -22.51011848449707 0 1.524457573890686
v -27.5 0 25
v -57.5 105 25
v -62.489879608154297 105 1.524457573890686
v -57.5 0 25
v -62.489879608154297 0 1.524457573890686
v -87 0 25
v -87 105 25
v -87 0 32.5
v -87 105 32.5
v 2 0 32.5
v 2 105 32.5
v 2 0 25
v 2 105 25
v 2 0 25
v 2 105 25
v -27.5 0 25
v -27.5 105 25
v -87 105 25
v 2 105 25
v -87 105 32.5
v 2 105 32.5
v -27.5 105 25
v -57.5 105 25
v -57.5 0 25
v -57.5 105 25
v -87 0 25
v -87 105 25
v -127.5 0 32.5
v 42.5 0 32.5
v -127.5 0 -137.5
v 42.5 0 -137.5
v -87 0 32.5
v 42.5 0 -8
v 2 0 -137.5
v -127.5 0 -97
v 35 0 -67.5
v 11.524457931518555 0 -72.489883422851562
v 11.524457931518555 0 -32.510120391845703
v 35 0 -37.5
v 35 0 -8
v 42.5 0 -97
v 35 0 -97
v -57.5 0 -130
v -62.489879608154297 0 -106.52445983886719
v -22.51011848449707 0 -106.52445983886719
v -27.5 0 -130
v 2 0 -130
v -87 0 -137.5
v -87 0 -130
v -120 0 -37.5
v -96.524459838867188 0 -32.510120391845703
v -96.524459838867188 0 -72.489883422851562
v -120 0 -67.5
v -120 0 -97
v -127.5 0 -8
v -120 0 -8
v -27.5 0 25
v -22.51011848449707 0 1.524457573890686
v -62.489879608154297 0 1.524457573890686
v -57.5 0 25
v -87 0 25
v 2 0 32.5
v 2 0 25
vt 0.91168093681335449 0.42735043168067932
vt 0.48433047533035278 0.42735043168067932
vt 0.91168093681335449 0.66805082559585571
vt 0.48433047533035278 0.66805082559585571
vt 0.91168093681335449 0.48469376564025879
vt 0.76210826635360718 0.48469376564025879
vt 0.76210826635360718 0.61070752143859863
vt 0.91168093681335449 0.61070752143859863
vt 0.24216523766517639 0.37539801001548767
vt 0.24216523766517639 0.80274844169616699
vt 0.48286563158035278 0.37539801001548767
vt 0.48286563158035278 0.80274844169616699
vt 0.29950857162475586 0.37539801001548767
vt 0.29950857162475586 0.5249706506729126
vt 0.42552229762077332 0.5249706506729126
vt 0.42552229762077332 0.37539801001548767
vt 0 0.37539801001548767
vt 0 0.80274844169616699
vt 0.24070039391517639 0.37539801001548767
vt 0.24070039391517639 0.80274844169616699
vt 0.057343330234289169 0.37539801001548767
vt 0.057343330234289169 0.5249706506729126
vt 0.18335707485675812 0.5249706506729126
vt 0.18335707485675812 0.37539801001548767
vt 0.75783473253250122 0
vt 0.75783473253250122 0.42588558793067932
vt 0.99853515625 0
vt 0.99853515625 0.42588558793067932
vt 0.81517809629440308 0
vt 0.81517809629440308 0.1490599513053894
vt 0.94119185209274292 0.1490599513053894
vt 0.94119185209274292 0
vt 0.74216526746749878 0.66951566934585571
vt 0.74216526746749878 0.91021609306335449
vt 0.98433047533035278 0.66951566934585571
vt 0.98433047533035278 0.91021609306335449
vt 0 0.310111403465271
vt 0 0.34429943561553955
vt 0.056951228529214859 0.310111403465271
vt 0.056951228529214859 0.34429943561553955
vt 0.74640989303588867 0
vt 0.68945866823196411 0
vt 0.74640989303588867 0.14957265555858612
vt 0.68945866823196411 0.14957265555858612
vt 0.68799382448196411 0.21367521584033966
vt 0.65527063608169556 0.21367521584033966
vt 0.68799382448196411 0.36324787139892578
vt 0.65527063608169556 0.36324787139892578
vt 0.65380579233169556 0.21367521584033966
vt 0.621082603931427 0.21367521584033966
vt 0.65380579233169556 0.36324787139892578
vt 0.621082603931427 0.36324787139892578
vt 0.14957265555858612 0.16321653127670288
vt 0 0.16321653127670288
vt 0 0.1739002913236618
vt 0.14957265555858612 0.1739002913236618
vt 0.14957265555858612 0.14281447231769562
vt 0 0.14281447231769562
vt 0.14957265555858612 0.15349823236465454
vt 0 0.15349823236465454
vt 0.2921186089515686 0
vt 0.2921186089515686 0.14957265555858612
vt 0.33414140343666077 0
vt 0.33414140343666077 0.14957265555858612
vt 0.12678062915802002 0.02040206640958786
vt 0 0.02040206640958786
vt 0.12678062915802002 0.031085826456546783
vt 0.042022790759801865 0.02040206640958786
vt 0.084757834672927856 0.02040206640958786
vt 0 0.031085826456546783
vt 0.22804798185825348 0
vt 0.22804798185825348 0.14957265555858612
vt 0.27007079124450684 0
vt 0.27007079124450684 0.14957265555858612
vt 0 0.24482479691505432
vt 0 0.27901282906532288
vt 0.056951228529214859 0.24482479691505432
vt 0.056951228529214859 0.27901282906532288
vt 0.67803382873535156 0
vt 0.621082603931427 0
vt 0.67803382873535156 0.14957265555858612
vt 0.621082603931427 0.14957265555858612
vt 0.75636988878250122 0.21367521584033966
vt 0.72364670038223267 0.21367521584033966
vt 0.75636988878250122 0.36324787139892578
vt 0.72364670038223267 0.36324787139892578
vt 0.72218185663223267 0.21367521584033966
vt 0.68945866823196411 0.21367521584033966
vt 0.72218185663223267 0.36324787139892578
vt 0.68945866823196411 0.36324787139892578
vt 0.14957265555858612 0.22442273795604706
vt 0 0.22442273795604706
vt 0.14957265555858612 0.23510649800300598
vt 0 0.23510649800300598
vt 0.14957265555858612 0.2040206640958786
vt 0.14957265555858612 0.21470442414283752
vt 0 0.21470442414283752
vt 0 0.2040206640958786
vt 0.42025986313819885 0
vt 0.42025986313819885 0.14957265555858612
vt 0.46228265762329102 0
vt 0.46228265762329102 0.14957265555858612
vt 0.12678062915802002 0.06120619922876358
vt 0 0.06120619922876358
vt 0.12678062915802002 0.071889959275722504
vt 0.042022790759801865 0.06120619922876358
vt 0.084757834672927856 0.06120619922876358
vt 0 0.071889959275722504
vt 0.22804798185825348 0.18769900500774384
vt 0.22804798185825348 0.33727166056632996
vt 0.27007079124450684 0.18769900500774384
vt 0.27007079124450684 0.33727166056632996
vt 0.11402399092912674 0.24482479691505432
vt 0.11402399092912674 0.27901282906532288
vt 0.1709752231836319 0.24482479691505432
vt 0.1709752231836319 0.27901282906532288
vt 0.54128170013427734 0
vt 0.48433047533035278 0
vt 0.54128170013427734 0.14957265555858612
vt 0.48433047533035278 0.14957265555858612
vt 0.55124169588088989 0.21367521584033966
vt 0.51851850748062134 0.21367521584033966
vt 0.55124169588088989 0.36324787139892578
vt 0.51851850748062134 0.36324787139892578
vt 0.51705366373062134 0.21367521584033966
vt 0.48433047533035278 0.21367521584033966
vt 0.51705366373062134 0.36324787139892578
vt 0.48433047533035278 0.36324787139892578
vt 0.14957265555858612 0.12241239845752716
vt 0 0.12241239845752716
vt 0.14957265555858612 0.13309615850448608
vt 0 0.13309615850448608
vt 0 0.18361860513687134
vt 0.14957265555858612 0.19430236518383026
vt 0 0.19430236518383026
vt 0.14957265555858612 0.18361860513687134
vt 0.42025986313819885 0.18769900500774384
vt 0.42025986313819885 0.33727166056632996
vt 0.46228265762329102 0.18769900500774384
vt 0.46228265762329102 0.33727166056632996
vt 0.12678062915802002 0.04080413281917572
vt 0 0.04080413281917572
vt 0 0.051487892866134644
vt 0.042022790759801865 0.04080413281917572
vt 0.084757834672927856 0.04080413281917572
vt 0.12678062915802002 0.051487892866134644
vt 0.35618922114372253 0
vt 0.35618922114372253 0.14957265555858612
vt 0.3982120156288147 0
vt 0.3982120156288147 0.14957265555858612
vt 0.11402399092912674 0.310111403465271
vt 0.11402399092912674 0.34429943561553955
vt 0.1709752231836319 0.310111403465271
vt 0.1709752231836319 0.34429943561553955
vt 0.60965776443481445 0
vt 0.55270653963088989 0
vt 0.60965776443481445 0.14957265555858612
vt 0.55270653963088989 0.14957265555858612
vt 0.619617760181427 0.21367521584033966
vt 0.58689457178115845 0.21367521584033966
vt 0.619617760181427 0.36324787139892578
vt 0.58689457178115845 0.36324787139892578
vt 0.58542972803115845 0.21367521584033966
vt 0.55270653963088989 0.21367521584033966
vt 0.58542972803115845 0.36324787139892578
vt 0.55270653963088989 0.36324787139892578
vt 0.14957265555858612 0.1020103320479393
vt 0 0.1020103320479393
vt 0.14957265555858612 0.11269409209489822
vt 0 0.11269409209489822
vt 0.14957265555858612 0.08160826563835144
vt 0 0.08160826563835144
vt 0.14957265555858612 0.092292025685310364
vt 0 0.092292025685310364
vt 0.35618922114372253 0.18769900500774384
vt 0.35618922114372253 0.33727166056632996
vt 0.3982120156288147 0.18769900500774384
vt 0.3982120156288147 0.33727166056632996
vt 0.12678062915802002 0
vt 0 0
vt 0.12678062915802002 0.010683760978281498
vt 0 0.010683760978281498
vt 0.042022790759801865 0
vt 0.084757834672927856 0
vt 0.2921186089515686 0.18769900500774384
vt 0.2921186089515686 0.33727166056632996
vt 0.33414140343666077 0.18769900500774384
vt 0.33414140343666077 0.33727166056632996
vt 0.48433047533035278 0.66951566934585571
vt 0.48433047533035278 0.91021609306335449
vt 0.72649574279785156 0.66951566934585571
vt 0.72649574279785156 0.91021609306335449
vt 0.48433047533035278 0.72685897350311279
vt 0.54202276468276978 0.91021609306335449
vt 0.72649574279785156 0.85287272930145264
vt 0.66880339384078979 0.66951566934585571
vt 0.62678062915802002 0.8995969295501709
vt 0.63388872146606445 0.86635828018188477
vt 0.57693749666213989 0.86635828018188477
vt 0.58404558897018433 0.8995969295501709
vt 0.54202276468276978 0.8995969295501709
vt 0.66880339384078979 0.91021609306335449
vt 0.66880339384078979 0.8995969295501709
vt 0.71581196784973145 0.7686275839805603
vt 0.68237102031707764 0.7615625262260437
vt 0.68237102031707764 0.8181692361831665
vt 0.71581196784973145 0.81110411882400513
vt 0.71581196784973145 0.85287272930145264
vt 0.72649574279785156 0.72685897350311279
vt 0.71581196784973145 0.72685897350311279
vt 0.58404558897018433 0.68013483285903931
vt 0.57693749666213989 0.71337348222732544
vt 0.63388872146606445 0.71337348222732544
vt 0.62678062915802002 0.68013483285903931
vt 0.66880339384078979 0.68013483285903931
vt 0.54202276468276978 0.66951566934585571
vt 0.54202276468276978 0.68013483285903931
vt 0.4950142502784729 0.81110411882400513
vt 0.52845519781112671 0.8181692361831665
vt 0.52845519781112671 0.7615625262260437
vt 0.4950142502784729 0.7686275839805603
vt 0.4950142502784729 0.72685897350311279
vt 0.48433047533035278 0.85287272930145264
vt 0.4950142502784729 0.85287272930145264
vn 0 0 1
vn 0 0 1
vn 0 0 1
vn 0 0 1
vn 0 0 1
vn 0 0 1
vn 0 0 1
vn 0 0 1
vn 1 0 0
vn 1 0 0
vn 1 0 0
vn 1 0 0
vn 1 0 0
vn 1 0 0
vn 1 0 0
vn 1 0 0
vn 0 0 -1
vn 0 0 -1
vn 0 0 -1
vn 0 0 -1
vn 0 0 -1
vn 0 0 -1
vn 0 0 -1
vn 0 0 -1
vn -1 0 0
vn -1 0 0
vn -1 0 0
vn -1 0 0
vn -1 0 0
vn -1 0 0
vn -1 0 0
vn -1 0 0
vn 0 1 0
vn 0 1 0
vn 0 1 0
vn 0 1 0
vn 0 -1 0
vn 0 -1 0
vn 0 -1 0
vn 0 -1 0
vn 1 0 0
vn 1 0 0
vn 1 0 0
vn 1 0 0
vn -0.20791168510913849 0 0.97814762592315674
vn -0.20791168510913849 0 0.97814762592315674
vn -0.20791168510913849 0 0.97814762592315674
vn -0.20791168510913849 0 0.97814762592315674
vn -0.20791168510913849 0 -0.97814762592315674
vn -0.20791168510913849 0 -0.97814762592315674
vn -0.20791168510913849 0 -0.97814762592315674
vn -0.20791168510913849 0 -0.97814762592315674
vn 0 0 -1
vn 0 0 -1
vn 0 0 -1
vn 0 0 -1
vn 0 0 1
vn 0 0 1
vn 0 0 1
vn 0 0 1
vn 1 0 0
vn 1 0 0
vn 1 0 0
vn 1 0 0
vn 0 -1 0
vn 0 -1 0
vn 0 -1 0
vn 0 -1 0
vn 0 -1 0
vn 0 -1 0
vn 1 0 0
vn 1 0 0
vn 1 0 0
vn 1 0 0
vn 0 -1 0
vn 0 -1 0
vn 0 -1 0
vn 0 -1 0
vn 0 0 -1
vn 0 0 -1
vn 0 0 -1
vn 0 0 -1
vn 0.97814762592315674 0 0.20791168510913849
vn 0.97814762592315674 0 0.20791168510913849
vn 0.97814762592315674 0 0.20791168510913849
vn 0.97814762592315674 0 0.20791168510913849
vn -0.97814762592315674 0 0.20791168510913849
vn -0.97814762592315674 0 0.20791168510913849
vn -0.97814762592315674 0 0.20791168510913849
vn -0.97814762592315674 0 0.20791168510913849
vn -1 0 0
vn -1 0 0
vn -1 0 0
vn -1 0 0
vn 1 0 0
vn 1 0 0
vn 1 0 0
vn 1 0 0
vn 0 0 -1
vn 0 0 -1
vn 0 0 -1
vn 0 0 -1
vn 0 -1 0
vn 0 -1 0
vn 0 -1 0
vn 0 -1 0
vn 0 -1 0
vn 0 -1 0
vn 0 0 -1
vn 0 0 -1
vn 0 0 -1
vn 0 0 -1
vn 0 -1 0
vn 0 -1 0
vn 0 -1 0
vn 0 -1 0
vn -1 0 0
vn -1 0 0
vn -1 0 0
vn -1 0 0
vn 0.20791168510913849 0 -0.97814762592315674
vn 0.20791168510913849 0 -0.97814762592315674
vn 0.20791168510913849 0 -0.97814762592315674
vn 0.20791168510913849 0 -0.97814762592315674
vn 0.20791168510913849 0 0.97814762592315674
vn 0.20791168510913849 0 0.97814762592315674
vn 0.20791168510913849 0 0.97814762592315674
vn 0.20791168510913849 0 0.97814762592315674
vn 0 0 1
vn 0 0 1
vn 0 0 1
vn 0 0 1
vn 0 0 -1
vn 0 0 -1
vn 0 0 -1
vn 0 0 -1
vn -1 0 0
vn -1 0 0
vn -1 0 0
vn -1 0 0
vn 0 -1 0
vn 0 -1 0
vn 0 -1 0
vn 0 -1 0
vn 0 -1 0
vn 0 -1 0
vn -1 0 0
vn -1 0 0
vn -1 0 0
vn -1 0 0
vn 0 -1 0
vn 0 -1 0
vn 0 -1 0
vn 0 -1 0
vn 0 0 1
vn 0 0 1
vn 0 0 1
vn 0 0 1
vn -0.97814762592315674 0 -0.20791168510913849
vn -0.97814762592315674 0 -0.20791168510913849
vn -0.97814762592315674 0 -0.20791168510913849
vn -0.97814762592315674 0 -0.20791168510913849
vn 0.97814762592315674 0 -0.20791168510913849
vn 0.97814762592315674 0 -0.20791168510913849
vn 0.97814762592315674 0 -0.20791168510913849
vn 0.97814762592315674 0 -0.20791168510913849
vn 1 0 0
vn 1 0 0
vn 1 0 0
vn 1 0 0
vn -1 0 0
vn -1 0 0
vn -1 0 0
vn -1 0 0
vn 0 0 1
vn 0 0 1
vn 0 0 1
vn 0 0 1
vn 0 -1 0
vn 0 -1 0
vn 0 -1 0
vn 0 -1 0
vn 0 -1 0
vn 0 -1 0
vn 0 0 1
vn 0 0 1
vn 0 0 1
vn 0 0 1
vn 0 -1 0
vn 0 -1 0
vn 0 -1 0
vn 0 -1 0
vn 0 -1 0
vn 0 -1 0
vn 0 -1 0
vn 0 -1 0
vn 0 -1 0
vn 0 -1 0
vn 0 -1 0
vn 0 -1 0
vn 0 -1 0
vn 0 -1 0
vn 0 -1 0
vn 0 -1 0
vn 0 -1 0
vn 0 -1 0
vn 0 -1 0
vn 0 -1 0
vn 0 -1 0
vn 0 -1 0
vn 0 -1 0
vn 0 -1 0
vn 0 -1 0
vn 0 -1 0
vn 0 -1 0
vn 0 -1 0
vn 0 -1 0
vn 0 -1 0
vn 0 -1 0
vn 0 -1 0
vn 0 -1 0
vn 0 -1 0
vn 0 -1 0
vn 0 -1 0
f 6/6/6 1/1/1 5/5/5
f 4/4/4 2/2/2 6/6/6 7/7/7
f 1/1/1 6/6/6 2/2/2
f 7/7/7 8/8/8 3/3/3
f 3/3/3 4/4/4 7/7/7
f 14/14/14 9/9/9 13/13/13
f 15/15/15 10/10/10 14/14/14
f 9/9/9 14/14/14 10/10/10
f 15/15/15 16/16/16 11/11/11
f 10/10/10 15/15/15 12/12/12
f 11/11/11 12/12/12 15/15/15
f 22/22/22 17/17/17 21/21/21
f 20/20/20 18/18/18 22/22/22 23/23/23
f 17/17/17 22/22/22 18/18/18
f 23/23/23 24/24/24 19/19/19
f 19/19/19 20/20/20 23/23/23
f 30/30/30 25/25/25 29/29/29
f 28/28/28 26/26/26 30/30/30 31/31/31
f 25/25/25 30/30/30 26/26/26
f 31/31/31 32/32/32 27/27/27
f 27/27/27 28/28/28 31/31/31
f 34/34/34 33/33/33 35/35/35 36/36/36
f 38/38/38 37/37/37 39/39/39 40/40/40
f 42/42/42 41/41/41 43/43/43 44/44/44
f 46/46/46 45/45/45 47/47/47 48/48/48
f 50/50/50 49/49/49 51/51/51 52/52/52
f 54/54/54 55/55/55 56/56/56 53/53/53
f 58/58/58 60/60/60 59/59/59 57/57/57
f 62/62/62 64/64/64 63/63/63 61/61/61
f 67/67/67 65/65/65 69/69/69
f 70/70/70 69/69/69 68/68/68
f 66/66/66 70/70/70 68/68/68
f 67/67/67 69/69/69 70/70/70
f 72/72/72 74/74/74 73/73/73 71/71/71
f 76/76/76 75/75/75 77/77/77 78/78/78
f 80/80/80 79/79/79 81/81/81 82/82/82
f 84/84/84 83/83/83 85/85/85 86/86/86
f 88/88/88 87/87/87 89/89/89 90/90/90
f 92/92/92 94/94/94 93/93/93 91/91/91
f 98/98/98 97/97/97 96/96/96 95/95/95
f 100/100/100 102/102/102 101/101/101 99/99/99
f 105/105/105 103/103/103 107/107/107
f 108/108/108 107/107/107 106/106/106
f 104/104/104 108/108/108 106/106/106
f 105/105/105 107/107/107 108/108/108
f 110/110/110 112/112/112 111/111/111 109/109/109
f 114/114/114 113/113/113 115/115/115 116/116/116
f 118/118/118 117/117/117 119/119/119 120/120/120
f 122/122/122 121/121/121 123/123/123 124/124/124
f 126/126/126 125/125/125 127/127/127 128/128/128
f 130/130/130 132/132/132 131/131/131 129/129/129
f 133/133/133 135/135/135 134/134/134 136/136/136
f 138/138/138 140/140/140 139/139/139 137/137/137
f 146/146/146 141/141/141 145/145/145
f 143/143/143 145/145/145 144/144/144
f 142/142/142 143/143/143 144/144/144
f 146/146/146 145/145/145 143/143/143
f 148/148/148 150/150/150 149/149/149 147/147/147
f 152/152/152 151/151/151 153/153/153 154/154/154
f 156/156/156 155/155/155 157/157/157 158/158/158
f 160/160/160 159/159/159 161/161/161 162/162/162
f 164/164/164 163/163/163 165/165/165 166/166/166
f 168/168/168 170/170/170 169/169/169 167/167/167
f 172/172/172 174/174/174 173/173/173 171/171/171
f 176/176/176 178/178/178 177/177/177 175/175/175
f 181/181/181 179/179/179 184/184/184
f 182/182/182 184/184/184 183/183/183
f 180/180/180 182/182/182 183/183/183
f 181/181/181 184/184/184 182/182/182
f 186/186/186 188/188/188 187/187/187 185/185/185
f 222/222/222 193/193/193 189/189/189
f 220/220/220 221/221/221 222/222/222
f 222/222/222 189/189/189 217/217/217
f 217/217/217 212/212/212 222/222/222
f 222/222/222 212/212/212 220/220/220
f 211/211/211 212/212/212 217/217/217
f 212/212/212 213/213/213 220/220/220
f 213/213/213 199/199/199 220/220/220
f 216/216/216 217/217/217 189/189/189
f 201/201/201 190/190/190 224/224/224
f 223/223/223 224/224/224 190/190/190
f 224/224/224 218/218/218 219/219/219
f 201/201/201 219/219/219 199/199/199
f 220/220/220 199/199/199 219/219/219
f 199/199/199 200/200/200 201/201/201
f 201/201/201 194/194/194 190/190/190
f 219/219/219 201/201/201 224/224/224
f 205/205/205 213/213/213 215/215/215
f 214/214/214 215/215/215 213/213/213
f 215/215/215 196/196/196 191/191/191
f 206/206/206 199/199/199 213/213/213
f 209/209/209 210/210/210 191/191/191
f 215/215/215 210/210/210 205/205/205
f 205/205/205 210/210/210 204/204/204
f 191/191/191 210/210/210 215/215/215
f 206/206/206 213/213/213 205/205/205
f 203/203/203 197/197/197 198/198/198
f 192/192/192 202/202/202 203/203/203
f 203/203/203 198/198/198 208/208/208
f 208/208/208 206/206/206 207/207/207
f 192/192/192 208/208/208 195/195/195
f 208/208/208 192/192/192 203/203/203
f 206/206/206 208/208/208 198/198/198
f 198/198/198 199/199/199 206/206/206
