# Rhino

o object_1
v -180 45 -37.5
v -180 45 -67.5
v -180 105 -37.5
v -180 105 -67.5
v -180 45 -67.5
v -90 45 -67.5
v -180 105 -67.5
v -90 105 -67.5
v 0 45 -37.5
v -90 45 -37.5
v 0 105 -37.5
v -90 105 -37.5
v 0 0 0
v 200 0 0
v 0 0 -105
v 200 0 -105
v 0 0 -105
v 200 0 -105
v 0 105 -105
v 200 105 -105
v 200 0 -105
v 200 0 0
v 200 105 -105
v 200 105 0
v 200 0 0
v 0 0 0
v 200 105 0
v 0 105 0
v 0 45 -67.5
v 12 45 -67.5
v 0 45 -79.5
v 12 45 -79.5
v 0 45 -79.5
v 12 45 -79.5
v 0 105 -79.5
v 12 105 -79.5
v 12 45 -79.5
v 12 45 -67.5
v 12 105 -79.5
v 12 105 -67.5
v 12 45 -67.5
v 0 45 -67.5
v 12 105 -67.5
v 0 105 -67.5
v -87.975440979003906 45 -58.730670928955078
v -90 45 -67.5
v -87.975440979003906 105 -58.730670928955078
v -90 105 -67.5
v -87.975440979003906 45 -58.730670928955078
v -87.975440979003906 105 -58.730670928955078
v -49.991294860839844 45 -67.5
v -49.991294860839844 105 -67.5
v -180 45 -37.5
v 0 45 -37.5
v -180 45 -67.5
v 0 45 -67.5
v -90 45 -67.5
v -90 45 -37.5
v -87.975440979003906 45 -58.730670928955078
v -49.991294860839844 45 -67.5
v -128.00042724609375 45 -46.273090362548828
v -130.02499389648438 45 -37.503761291503906
v -130.00869750976562 45 -37.5
v -49.991294860839844 45 -67.5
v 0 45 -67.5
v -49.991294860839844 105 -67.5
v 0 105 -67.5
v -180 105 -37.5
v 0 105 -37.5
v -180 105 -67.5
v 0 105 -67.5
v -90 105 -67.5
v -90 105 -37.5
v -87.975440979003906 105 -58.730670928955078
v -49.991294860839844 105 -67.5
v -128.00042724609375 105 -46.273090362548828
v -130.02499389648438 105 -37.503761291503906
v -130.00869750976562 105 -37.5
v -128.00042724609375 45 -46.273090362548828
v -130.02499389648438 45 -37.503761291503906
v -128.00042724609375 105 -46.273090362548828
v -130.02499389648438 105 -37.503761291503906
v -130.02499389648438 45 -37.503761291503906
v -130.02499389648438 105 -37.503761291503906
v -130.00869750976562 105 -37.5
v -130.00869750976562 45 -37.5
v -90 45 -37.5
v -128.00042724609375 45 -46.273090362548828
v -90 105 -37.5
v -128.00042724609375 105 -46.273090362548828
v -130.00869750976562 45 -37.5
v -180 45 -37.5
v -130.00869750976562 105 -37.5
v -180 105 -37.5
v 0 45 -25.5
v 12 45 -25.5
v 0 45 -37.5
v 12 45 -37.5
v 0 45 -37.5
v 12 45 -37.5
v 0 105 -37.5
v 12 105 -37.5
v 12 45 -37.5
v 12 45 -25.5
v 12 105 -37.5
v 12 105 -25.5
v 12 45 -25.5
v 0 45 -25.5
v 12 105 -25.5
v 0 105 -25.5
v 0 0 0
v 0 0 -105
v 0 105 0
v 0 105 -105
v 0 45 -37.5
v 0 45 -67.5
v 0 105 -25.5
v 0 45 -79.5
v 0 105 -79.5
v 0 45 -25.5
v 0 105 0
v 200 105 0
v 0 105 -105
v 200 105 -105
v 0 105 -37.5
v 0 105 -67.5
v 0 105 -25.5
v 12 105 -79.5
v 0 105 -79.5
v 12 105 -67.5
v 12 105 -37.5
v 12 105 -25.5
vt 0.62068963050842285 0.82453268766403198
vt 0.62068963050842285 0.89349818229675293
vt 0.75715583562850952 0.82453268766403198
vt 0.75715583562850952 0.89349818229675293
vt 0.67241376638412476 0
vt 0.67241376638412476 0.20689655840396881
vt 0.81034481525421143 0
vt 0.81034481525421143 0.20689655840396881
vt 0.48275861144065857 0
vt 0.48275861144065857 0.20689655840396881
vt 0.62068963050842285 0
vt 0.62068963050842285 0.20689655840396881
vt 0.24137930572032928 0.45977011322975159
vt 0.24137930572032928 0.91807538270950317
vt 0.48129376769065857 0.45977011322975159
vt 0.48129376769065857 0.91807538270950317
vt 0 0.45977011322975159
vt 0 0.91807538270950317
vt 0.23991446197032928 0.45977011322975159
vt 0.23991446197032928 0.91807538270950317
vt 0 0
vt 0 0.24137930572032928
vt 0.23991446197032928 0
vt 0.23991446197032928 0.24137930572032928
vt 0.75862067937850952 0.45395022630691528
vt 0.75862067937850952 0.91372036933898926
vt 0.99853515625 0.45395022630691528
vt 0.99853515625 0.91372036933898926
vt 0.48275861144065857 0.55851149559020996
vt 0.48275861144065857 0.58609771728515625
vt 0.51034480333328247 0.55851149559020996
vt 0.51034480333328247 0.58609771728515625
vt 0.62068963050842285 0.78652966022491455
vt 0.62068963050842285 0.81411582231521606
vt 0.75715583562850952 0.78652966022491455
vt 0.75715583562850952 0.81411582231521606
vt 0.48275861144065857 0.59651452302932739
vt 0.48275861144065857 0.62410074472427368
vt 0.62068963050842285 0.59651452302932739
vt 0.62068963050842285 0.62410074472427368
vt 0.52873563766479492 0.55851149559020996
vt 0.52873563766479492 0.58609771728515625
vt 0.66666668653488159 0.55851149559020996
vt 0.66666668653488159 0.58609771728515625
vt 0.48275861144065857 0.63451755046844482
vt 0.48275861144065857 0.65520721673965454
vt 0.62068963050842285 0.63451755046844482
vt 0.62068963050842285 0.65520721673965454
vt 0.62068963050842285 0.75267499685287476
vt 0.75715583562850952 0.75267499685287476
vt 0.62068963050842285 0.66305822134017944
vt 0.75715583562850952 0.66305822134017944
vt 0.93103450536727905 0
vt 0.93103450536727905 0.41379311680793762
vt 0.99853515625 0
vt 0.99853515625 0.41379311680793762
vt 0.99853515625 0.20689655840396881
vt 0.93103450536727905 0.20689655840396881
vt 0.97880399227142334 0.21155072748661041
vt 0.99853515625 0.29887056350708008
vt 0.95077413320541382 0.11953923851251602
vt 0.93104296922683716 0.11488507688045502
vt 0.93103450536727905 0.11492251604795456
vt 0.48275861144065857 0.20951549708843231
vt 0.48275861144065857 0.32443800568580627
vt 0.61922478675842285 0.20951549708843231
vt 0.61922478675842285 0.32443800568580627
vt 0.86206895112991333 0
vt 0.86206895112991333 0.41379311680793762
vt 0.92956966161727905 0
vt 0.92956966161727905 0.41379311680793762
vt 0.92956966161727905 0.20689655840396881
vt 0.86206895112991333 0.20689655840396881
vt 0.90983843803405762 0.21155072748661041
vt 0.92956966161727905 0.29887056350708008
vt 0.88180863857269287 0.11953923851251602
vt 0.86207741498947144 0.11488507688045502
vt 0.86206895112991333 0.11492251604795456
vt 0.48275861144065857 0.49200621247291565
vt 0.48275861144065857 0.51269584894180298
vt 0.62068963050842285 0.49200621247291565
vt 0.62068963050842285 0.51269584894180298
vt 0.48275861144065857 0.45395022630691528
vt 0.62068963050842285 0.45395022630691528
vt 0.62068963050842285 0.45398867130279541
vt 0.48275861144065857 0.45398867130279541
vt 0.48275861144065857 0.76074188947677612
vt 0.48275861144065857 0.85039705038070679
vt 0.61922478675842285 0.76074188947677612
vt 0.61922478675842285 0.85039705038070679
vt 0.48275861144065857 0.33173286914825439
vt 0.48275861144065857 0.44665539264678955
vt 0.61922478675842285 0.33173286914825439
vt 0.61922478675842285 0.44665539264678955
vt 0.51034480333328247 0.45400318503379822
vt 0.48275861144065857 0.45400318503379822
vt 0.51034480333328247 0.48158937692642212
vt 0.48275861144065857 0.48158937692642212
vt 0.48275861144065857 0.71188086271286011
vt 0.48275861144065857 0.73946702480316162
vt 0.61922478675842285 0.71188086271286011
vt 0.61922478675842285 0.73946702480316162
vt 0.48275861144065857 0.66301983594894409
vt 0.48275861144065857 0.69060599803924561
vt 0.61922478675842285 0.66301983594894409
vt 0.61922478675842285 0.69060599803924561
vt 0.48275861144065857 0.52050846815109253
vt 0.48275861144065857 0.54809468984603882
vt 0.62068963050842285 0.52050846815109253
vt 0.62068963050842285 0.54809468984603882
vt 0.62068963050842285 0.20951549708843231
vt 0.62068963050842285 0.4508948028087616
vt 0.86060410737991333 0.20951549708843231
vt 0.86060410737991333 0.4508948028087616
vt 0.72351014614105225 0.29572239518165588
vt 0.72351014614105225 0.36468791961669922
vt 0.86060410737991333 0.26813617348670959
vt 0.72351014614105225 0.39227411150932312
vt 0.86060410737991333 0.39227411150932312
vt 0.72351014614105225 0.26813617348670959
vt 0.24137930572032928 0
vt 0.24137930572032928 0.45830526947975159
vt 0.48129376769065857 0
vt 0.48129376769065857 0.45830526947975159
vt 0.32706305384635925 0
vt 0.39561003446578979 0
vt 0.29964426159858704 0
vt 0.42302882671356201 0.027498316019773483
vt 0.42302882671356201 0
vt 0.39561003446578979 0.027498316019773483
vt 0.32706305384635925 0.027498316019773483
vt 0.29964426159858704 0.027498316019773483
vn -1 0 0
vn -1 0 0
vn -1 0 0
vn -1 0 0
vn 0 0 -1
vn 0 0 -1
vn 0 0 -1
vn 0 0 -1
vn 0 0 1
vn 0 0 1
vn 0 0 1
vn 0 0 1
vn 0 -1 0
vn 0 -1 0
vn 0 -1 0
vn 0 -1 0
vn 0 0 -1
vn 0 0 -1
vn 0 0 -1
vn 0 0 -1
vn 1 0 0
vn 1 0 0
vn 1 0 0
vn 1 0 0
vn 0 0 1
vn 0 0 1
vn 0 0 1
vn 0 0 1
vn 0 1 0
vn 0 1 0
vn 0 1 0
vn 0 1 0
vn 0 0 1
vn 0 0 1
vn 0 0 1
vn 0 0 1
vn -1 0 0
vn -1 0 0
vn -1 0 0
vn -1 0 0
vn 0 0 -1
vn 0 0 -1
vn 0 0 -1
vn 0 0 -1
vn 0.97437006235122681 0 -0.22495105862617493
vn 0.97437006235122681 0 -0.22495105862617493
vn 0.97437006235122681 0 -0.22495105862617493
vn 0.97437006235122681 0 -0.22495105862617493
vn -0.22495105862617493 0 -0.97437006235122681
vn -0.22495105862617493 0 -0.97437006235122681
vn -0.22495105862617493 0 -0.97437006235122681
vn -0.22495105862617493 0 -0.97437006235122681
vn 0 -1 0
vn 0 -1 0
vn 0 -1 0
vn 0 -1 0
vn 0 -1 0
vn 0 -1 0
vn 0 -1 0
vn 0 -1 0
vn 0 -1 0
vn 0 -1 0
vn 0 -1 0
vn 0 0 -1
vn 0 0 -1
vn 0 0 -1
vn 0 0 -1
vn 0 1 0
vn 0 1 0
vn 0 1 0
vn 0 1 0
vn 0 1 0
vn 0 1 0
vn 0 1 0
vn 0 1 0
vn 0 1 0
vn 0 1 0
vn 0 1 0
vn 0.97437006235122681 0 0.22495105862617493
vn 0.97437006235122681 0 0.22495105862617493
vn 0.97437006235122681 0 0.22495105862617493
vn 0.97437006235122681 0 0.22495105862617493
vn 0.22495105862617493 0 -0.97437006235122681
vn 0.22495105862617493 0 -0.97437006235122681
vn 0.22495105862617493 0 -0.97437006235122681
vn 0.22495105862617493 0 -0.97437006235122681
vn -0.22495105862617493 0 0.97437006235122681
vn -0.22495105862617493 0 0.97437006235122681
vn -0.22495105862617493 0 0.97437006235122681
vn -0.22495105862617493 0 0.97437006235122681
vn 0 0 1
vn 0 0 1
vn 0 0 1
vn 0 0 1
vn 0 1 0
vn 0 1 0
vn 0 1 0
vn 0 1 0
vn 0 0 1
vn 0 0 1
vn 0 0 1
vn 0 0 1
vn -1 0 0
vn -1 0 0
vn -1 0 0
vn -1 0 0
vn 0 0 -1
vn 0 0 -1
vn 0 0 -1
vn 0 0 -1
vn -1 0 0
vn -1 0 0
vn -1 0 0
vn -1 0 0
vn -1 0 0
vn -1 0 0
vn -1 0 0
vn -1 0 0
vn -1 0 0
vn -1 0 0
vn 0 1 0
vn 0 1 0
vn 0 1 0
vn 0 1 0
vn 0 1 0
vn 0 1 0
vn 0 1 0
vn 0 1 0
vn 0 1 0
vn 0 1 0
vn 0 1 0
vn 0 1 0
f 2/2/2 1/1/1 3/3/3 4/4/4
f 6/6/6 5/5/5 7/7/7 8/8/8
f 10/10/10 9/9/9 11/11/11 12/12/12
f 14/14/14 13/13/13 15/15/15 16/16/16
f 18/18/18 17/17/17 19/19/19 20/20/20
f 22/22/22 21/21/21 23/23/23 24/24/24
f 26/26/26 25/25/25 27/27/27 28/28/28
f 30/30/30 32/32/32 31/31/31 29/29/29
f 34/34/34 36/36/36 35/35/35 33/33/33
f 38/38/38 40/40/40 39/39/39 37/37/37
f 42/42/42 44/44/44 43/43/43 41/41/41
f 46/46/46 48/48/48 47/47/47 45/45/45
f 49/49/49 50/50/50 52/52/52 51/51/51
f 63/63/63 53/53/53 62/62/62
f 61/61/61 62/62/62 53/53/53
f 58/58/58 59/59/59 54/54/54
f 55/55/55 59/59/59 61/61/61
f 53/53/53 55/55/55 61/61/61
f 57/57/57 59/59/59 55/55/55
f 56/56/56 59/59/59 60/60/60
f 59/59/59 56/56/56 54/54/54
f 61/61/61 59/59/59 58/58/58
f 65/65/65 64/64/64 66/66/66 67/67/67
f 78/78/78 77/77/77 68/68/68
f 76/76/76 68/68/68 77/77/77
f 73/73/73 69/69/69 74/74/74
f 70/70/70 76/76/76 74/74/74
f 68/68/68 76/76/76 70/70/70
f 72/72/72 70/70/70 74/74/74
f 71/71/71 75/75/75 74/74/74
f 74/74/74 69/69/69 71/71/71
f 76/76/76 73/73/73 74/74/74
f 80/80/80 79/79/79 81/81/81 82/82/82
f 86/86/86 83/83/83 84/84/84 85/85/85
f 88/88/88 87/87/87 89/89/89 90/90/90
f 92/92/92 91/91/91 93/93/93 94/94/94
f 96/96/96 98/98/98 97/97/97 95/95/95
f 100/100/100 102/102/102 101/101/101 99/99/99
f 104/104/104 106/106/106 105/105/105 103/103/103
f 108/108/108 110/110/110 109/109/109 107/107/107
f 115/115/115 111/111/111 120/120/120
f 113/113/113 120/120/120 111/111/111
f 116/116/116 112/112/112 115/115/115
f 111/111/111 115/115/115 112/112/112
f 118/118/118 112/112/112 116/116/116
f 114/114/114 118/118/118 119/119/119
f 112/112/112 118/118/118 114/114/114
f 113/113/113 117/117/117 120/120/120
f 132/132/132 127/127/127 121/121/121
f 131/131/131 132/132/132 122/122/122
f 121/121/121 122/122/122 132/132/132
f 130/130/130 131/131/131 122/122/122
f 131/131/131 130/130/130 126/126/126 125/125/125
f 128/128/128 123/123/123 129/129/129
f 124/124/124 128/128/128 130/130/130
f 123/123/123 128/128/128 124/124/124
f 122/122/122 124/124/124 130/130/130
