# Rhino

o object_1
v -128.00042724609375 45 -46.273090362548828
v -90 45 -37.5
v -130.02499389648438 45 -37.503761291503906
v -92.024559020996094 45 -28.730669021606445
v -128.00042724609375 45 -46.273090362548828
v -130.02499389648438 45 -37.503761291503906
v -128.00042724609375 105 -46.273090362548828
v -130.02499389648438 105 -37.503761291503906
v -130.02499389648438 45 -37.503761291503906
v -92.024559020996094 45 -28.730669021606445
v -130.02499389648438 105 -37.503761291503906
v -92.024559020996094 105 -28.730669021606445
v -92.024559020996094 45 -28.730669021606445
v -90 45 -37.5
v -92.024559020996094 105 -28.730669021606445
v -90 105 -37.5
v -90 45 -37.5
v -128.00042724609375 45 -46.273090362548828
v -90 105 -37.5
v -128.00042724609375 105 -46.273090362548828
v -128.00042724609375 105 -46.273090362548828
v -90 105 -37.5
v -130.02499389648438 105 -37.503761291503906
v -92.024559020996094 105 -28.730669021606445
vt 0.09375 0
vt 0.09375 0.40625
vt 0.18603515625 0
vt 0.18603515625 0.40625
vt 0.37353515625 0
vt 0.28125 0
vt 0.37353515625 0.625
vt 0.28125 0.625
vt 0.375 0.40625
vt 0.375 0.81103515625
vt 0.99853515625 0.40625
vt 0.99853515625 0.81103515625
vt 0.27978515625 0
vt 0.1875 0
vt 0.27978515625 0.625
vt 0.1875 0.625
vt 0.375 0
vt 0.375 0.40478515625
vt 0.99853515625 0
vt 0.99853515625 0.40478515625
vt 0 0
vt 0 0.40625
vt 0.09228515625 0
vt 0.09228515625 0.40625
vn 0 -1 0
vn 0 -1 0
vn 0 -1 0
vn 0 -1 0
vn -0.97437006235122681 0 -0.22495105862617493
vn -0.97437006235122681 0 -0.22495105862617493
vn -0.97437006235122681 0 -0.22495105862617493
vn -0.97437006235122681 0 -0.22495105862617493
vn -0.22495105862617493 0 0.97437006235122681
vn -0.22495105862617493 0 0.97437006235122681
vn -0.22495105862617493 0 0.97437006235122681
vn -0.22495105862617493 0 0.97437006235122681
vn 0.97437006235122681 0 0.22495105862617493
vn 0.97437006235122681 0 0.22495105862617493
vn 0.97437006235122681 0 0.22495105862617493
vn 0.97437006235122681 0 0.22495105862617493
vn 0.22495105862617493 0 -0.97437006235122681
vn 0.22495105862617493 0 -0.97437006235122681
vn 0.22495105862617493 0 -0.97437006235122681
vn 0.22495105862617493 0 -0.97437006235122681
vn 0 1 0
vn 0 1 0
vn 0 1 0
vn 0 1 0
f 2/2/2 4/4/4 3/3/3 1/1/1
f 6/6/6 8/8/8 7/7/7 5/5/5
f 10/10/10 12/12/12 11/11/11 9/9/9
f 14/14/14 16/16/16 15/15/15 13/13/13
f 18/18/18 20/20/20 19/19/19 17/17/17
f 22/22/22 21/21/21 23/23/23 24/24/24
