# Rhino

o object_1
v 0 45 -25.5
v 12 45 -25.5
v 0 45 -37.5
v 12 45 -37.5
v 0 45 -37.5
v 12 45 -37.5
v 0 105 -37.5
v 12 105 -37.5
v 12 45 -37.5
v 12 45 -25.5
v 12 105 -37.5
v 12 105 -25.5
v 12 45 -25.5
v 0 45 -25.5
v 12 105 -25.5
v 0 105 -25.5
v 0 105 -25.5
v 12 105 -25.5
v 0 105 -37.5
v 12 105 -37.5
v 0 45 -67.5
v 12 45 -67.5
v 0 45 -79.5
v 12 45 -79.5
v 0 45 -79.5
v 12 45 -79.5
v 0 105 -79.5
v 12 105 -79.5
v 12 45 -79.5
v 12 45 -67.5
v 12 105 -79.5
v 12 105 -67.5
v 12 45 -67.5
v 0 45 -67.5
v 12 105 -67.5
v 0 105 -67.5
v 0 105 -67.5
v 12 105 -67.5
v 0 105 -79.5
v 12 105 -79.5
v 0 0 0
v -200 0 0
v 0 0 -105
v -200 0 -105
v 0 0 -105
v -200 0 -105
v 0 105 -105
v -200 105 -105
v -200 0 -105
v -200 0 0
v -200 105 -105
v -200 105 0
v -200 0 0
v 0 0 0
v -200 105 0
v 0 105 0
v -180 45 -37.5
v -180 45 -67.5
v -180 105 -37.5
v -180 105 -67.5
v -49.991294860839844 45 -67.5
v 0 45 -67.5
v -49.991294860839844 105 -67.5
v 0 105 -67.5
v 0 45 -37.5
v -90 45 -37.5
v 0 105 -37.5
v -90 105 -37.5
v 0 0 0
v 0 0 -105
v 0 105 0
v 0 105 -105
v 0 45 -25.5
v 0 45 -37.5
v 0 105 -25.5
v 0 45 -67.5
v 0 45 -79.5
v 0 105 -79.5
v -90 45 -67.5
v -51.999568939208984 45 -76.273094177246094
v -90 105 -67.5
v -51.999568939208984 105 -76.273094177246094
v -51.999568939208984 45 -76.273094177246094
v -49.975006103515625 45 -67.503761291503906
v -51.999568939208984 105 -76.273094177246094
v -49.975006103515625 105 -67.503761291503906
v -180 45 -67.5
v -90 45 -67.5
v -180 105 -67.5
v -90 105 -67.5
v -49.975006103515625 45 -67.503761291503906
v -90 45 -67.5
v -51.999568939208984 45 -76.273094177246094
v -49.991294860839844 45 -67.5
v -49.975006103515625 45 -67.503761291503906
v -49.991294860839844 45 -67.5
v -49.975006103515625 105 -67.503761291503906
v -49.991294860839844 105 -67.5
v -90 45 -37.5
v -92.024559020996094 45 -28.730669021606445
v -130.00869750976562 45 -37.5
v -92.024559020996094 45 -28.730669021606445
v -90 45 -37.5
v -92.024559020996094 105 -28.730669021606445
v -90 105 -37.5
v 0 105 0
v -200 105 0
v 0 105 -105
v -200 105 -105
v 0 105 -25.5
v 0 105 -37.5
v 0 105 -67.5
v 0 105 -79.5
v -180 105 -37.5
v -180 105 -67.5
v -90 105 -67.5
v -90 105 -37.5
v -51.999568939208984 105 -76.273094177246094
v -49.975006103515625 105 -67.503761291503906
v -49.991294860839844 105 -67.5
v -92.024559020996094 105 -28.730669021606445
v -130.00869750976562 105 -37.5
v -180 45 -37.5
v 0 45 -37.5
v -180 45 -67.5
v 0 45 -67.5
v -90 45 -67.5
v -90 45 -37.5
v -49.991294860839844 45 -67.5
v -130.00869750976562 45 -37.5
v -130.00869750976562 45 -37.5
v -180 45 -37.5
v -130.00869750976562 105 -37.5
v -180 105 -37.5
v -92.024559020996094 45 -28.730669021606445
v -92.024559020996094 105 -28.730669021606445
v -130.00869750976562 45 -37.5
v -130.00869750976562 105 -37.5
vt 0.51034480333328247 0.55601078271865845
vt 0.48275861144065857 0.55601078271865845
vt 0.51034480333328247 0.58359700441360474
vt 0.48275861144065857 0.58359700441360474
vt 0.60520392656326294 0.45977011322975159
vt 0.57761770486831665 0.45977011322975159
vt 0.60520392656326294 0.59770113229751587
vt 0.57761770486831665 0.59770113229751587
vt 0.57072716951370239 0.45977011322975159
vt 0.5431409478187561 0.45977011322975159
vt 0.57072716951370239 0.59770113229751587
vt 0.5431409478187561 0.59770113229751587
vt 0.75173014402389526 0.45977011322975159
vt 0.72414392232894897 0.45977011322975159
vt 0.75173014402389526 0.59770113229751587
vt 0.72414392232894897 0.59770113229751587
vt 0.66811919212341309 0.45977011322975159
vt 0.66811919212341309 0.48735633492469788
vt 0.69570541381835938 0.45977011322975159
vt 0.69570541381835938 0.48735633492469788
vt 0.6120944619178772 0.45977011322975159
vt 0.6120944619178772 0.48735633492469788
vt 0.63968068361282349 0.45977011322975159
vt 0.63968068361282349 0.48735633492469788
vt 0.53797775506973267 0
vt 0.51110059022903442 0
vt 0.53797775506973267 0.13793103396892548
vt 0.51110059022903442 0.13793103396892548
vt 0.50963574647903442 0
vt 0.48275861144065857 0
vt 0.50963574647903442 0.13793103396892548
vt 0.48275861144065857 0.13793103396892548
vt 0.6655382513999939 0.491850346326828
vt 0.63795202970504761 0.491850346326828
vt 0.6655382513999939 0.62978136539459229
vt 0.63795202970504761 0.62978136539459229
vt 0.51034480333328247 0.45977011322975159
vt 0.48275861144065857 0.45977011322975159
vt 0.51034480333328247 0.48735633492469788
vt 0.48275861144065857 0.48735633492469788
vt 0.75862067937850952 0.45977011322975159
vt 0.75862067937850952 0.91807538270950317
vt 0.99853515625 0.45977011322975159
vt 0.99853515625 0.91807538270950317
vt 0.24137930572032928 0.43557170033454895
vt 0.24137930572032928 0.89534181356430054
vt 0.48129376769065857 0.43557170033454895
vt 0.48129376769065857 0.89534181356430054
vt 0 0
vt 0 0.24137930572032928
vt 0.24137930572032928 0
vt 0.24137930572032928 0.24137930572032928
vt 0 0.43557170033454895
vt 0 0.89534181356430054
vt 0.23991446197032928 0.43557170033454895
vt 0.23991446197032928 0.89534181356430054
vt 0.60840815305709839 0
vt 0.53944259881973267 0
vt 0.60840815305709839 0.13793103396892548
vt 0.53944259881973267 0.13793103396892548
vt 0.62068963050842285 0.6522514820098877
vt 0.62068963050842285 0.76717400550842285
vt 0.75715583562850952 0.6522514820098877
vt 0.75715583562850952 0.76717400550842285
vt 0.48275861144065857 0.6522514820098877
vt 0.48275861144065857 0.85914802551269531
vt 0.61922478675842285 0.6522514820098877
vt 0.61922478675842285 0.85914802551269531
vt 0.72413790225982666 0.19596758484840393
vt 0.48275861144065857 0.19596758484840393
vt 0.72413790225982666 0.43734690546989441
vt 0.48275861144065857 0.43734690546989441
vt 0.66551727056503296 0.29941585659980774
vt 0.63793104887008667 0.29941585659980774
vt 0.66551727056503296 0.43734690546989441
vt 0.56896549463272095 0.29941585659980774
vt 0.54137933254241943 0.29941585659980774
vt 0.54137933254241943 0.43734690546989441
vt 0.61029762029647827 0
vt 0.61029762029647827 0.089655175805091858
vt 0.74822860956192017 0
vt 0.74822860956192017 0.089655175805091858
vt 0.63278412818908691 0.491850346326828
vt 0.6120944619178772 0.491850346326828
vt 0.63278412818908691 0.62978136539459229
vt 0.6120944619178772 0.62978136539459229
vt 0.33421751856803894 0
vt 0.33421751856803894 0.20689655840396881
vt 0.47214853763580322 0
vt 0.47214853763580322 0.20689655840396881
vt 0.5172353982925415 0.54942530393600464
vt 0.53792500495910645 0.45977011322975159
vt 0.53792500495910645 0.54942530393600464
vt 0.5172353982925415 0.54938685894012451
vt 0.54313135147094727 0.45977011322975159
vt 0.54309296607971191 0.45977011322975159
vt 0.54313135147094727 0.59770113229751587
vt 0.54309296607971191 0.59770113229751587
vt 0.67242878675460815 0.58150553703308105
vt 0.69311845302581787 0.58150553703308105
vt 0.69311845302581787 0.49188879132270813
vt 0.71897602081298828 0.491850346326828
vt 0.69828635454177856 0.491850346326828
vt 0.71897602081298828 0.62978136539459229
vt 0.69828635454177856 0.62978136539459229
vt 0.75200754404067993 0
vt 0.75200754404067993 0.45830526947975159
vt 0.99338686466217041 0
vt 0.99338686466217041 0.45830526947975159
vt 0.81062823534011841 0
vt 0.8382144570350647 0
vt 0.90717995166778564 0
vt 0.93476617336273193 0
vt 0.8382144570350647 0.41247472167015076
vt 0.90717995166778564 0.41247472167015076
vt 0.90717995166778564 0.20623736083507538
vt 0.8382144570350647 0.20623736083507538
vt 0.92734801769256592 0.11915837973356247
vt 0.90718859434127808 0.11451904475688934
vt 0.90717995166778564 0.11455637961626053
vt 0.81805509328842163 0.2108767032623291
vt 0.8382144570350647 0.29791834950447083
vt 0.25994694232940674 0
vt 0.25994694232940674 0.41379311680793762
vt 0.32891246676445007 0
vt 0.32891246676445007 0.41379311680793762
vt 0.32891246676445007 0.20689655840396881
vt 0.25994694232940674 0.20689655840396881
vt 0.32891246676445007 0.29887056350708008
vt 0.25994694232940674 0.11492251604795456
vt 0.62068963050842285 0.78589588403701782
vt 0.62068963050842285 0.90081840753555298
vt 0.75715583562850952 0.78589588403701782
vt 0.75715583562850952 0.90081840753555298
vt 0.61029762029647827 0.18763896822929382
vt 0.74822860956192017 0.18763896822929382
vt 0.61029762029647827 0.098022222518920898
vt 0.74822860956192017 0.098022222518920898
vn 0 -1 0
vn 0 -1 0
vn 0 -1 0
vn 0 -1 0
vn 0 0 -1
vn 0 0 -1
vn 0 0 -1
vn 0 0 -1
vn 1 0 0
vn 1 0 0
vn 1 0 0
vn 1 0 0
vn 0 0 1
vn 0 0 1
vn 0 0 1
vn 0 0 1
vn 0 1 0
vn 0 1 0
vn 0 1 0
vn 0 1 0
vn 0 -1 0
vn 0 -1 0
vn 0 -1 0
vn 0 -1 0
vn 0 0 -1
vn 0 0 -1
vn 0 0 -1
vn 0 0 -1
vn 1 0 0
vn 1 0 0
vn 1 0 0
vn 1 0 0
vn 0 0 1
vn 0 0 1
vn 0 0 1
vn 0 0 1
vn 0 1 0
vn 0 1 0
vn 0 1 0
vn 0 1 0
vn 0 -1 0
vn 0 -1 0
vn 0 -1 0
vn 0 -1 0
vn 0 0 -1
vn 0 0 -1
vn 0 0 -1
vn 0 0 -1
vn -1 0 0
vn -1 0 0
vn -1 0 0
vn -1 0 0
vn 0 0 1
vn 0 0 1
vn 0 0 1
vn 0 0 1
vn 1 0 0
vn 1 0 0
vn 1 0 0
vn 1 0 0
vn 0 0 1
vn 0 0 1
vn 0 0 1
vn 0 0 1
vn 0 0 -1
vn 0 0 -1
vn 0 0 -1
vn 0 0 -1
vn 1 0 0
vn 1 0 0
vn 1 0 0
vn 1 0 0
vn 1 0 0
vn 1 0 0
vn 1 0 0
vn 1 0 0
vn 1 0 0
vn 1 0 0
vn 0.22495105862617493 0 0.97437006235122681
vn 0.22495105862617493 0 0.97437006235122681
vn 0.22495105862617493 0 0.97437006235122681
vn 0.22495105862617493 0 0.97437006235122681
vn -0.97437006235122681 0 0.22495105862617493
vn -0.97437006235122681 0 0.22495105862617493
vn -0.97437006235122681 0 0.22495105862617493
vn -0.97437006235122681 0 0.22495105862617493
vn 0 0 1
vn 0 0 1
vn 0 0 1
vn 0 0 1
vn 0 1 0
vn 0 1 0
vn 0 1 0
vn 0 1 0
vn -0.22495105862617493 0 -0.97437006235122681
vn -0.22495105862617493 0 -0.97437006235122681
vn -0.22495105862617493 0 -0.97437006235122681
vn -0.22495105862617493 0 -0.97437006235122681
vn 0 1 0
vn 0 1 0
vn 0 1 0
vn -0.97437006235122681 0 -0.22495105862617493
vn -0.97437006235122681 0 -0.22495105862617493
vn -0.97437006235122681 0 -0.22495105862617493
vn -0.97437006235122681 0 -0.22495105862617493
vn 0 1 0
vn 0 1 0
vn 0 1 0
vn 0 1 0
vn 0 1 0
vn 0 1 0
vn 0 1 0
vn 0 1 0
vn 0 1 0
vn 0 1 0
vn 0 1 0
vn 0 1 0
vn 0 1 0
vn 0 1 0
vn 0 1 0
vn 0 1 0
vn 0 1 0
vn 0 1 0
vn 0 1 0
vn 0 1 0
vn 0 1 0
vn 0 1 0
vn 0 1 0
vn 0 1 0
vn 0 1 0
vn 0 0 -1
vn 0 0 -1
vn 0 0 -1
vn 0 0 -1
vn 0.22495105862617493 0 -0.97437006235122681
vn 0.22495105862617493 0 -0.97437006235122681
vn 0.22495105862617493 0 -0.97437006235122681
vn 0.22495105862617493 0 -0.97437006235122681
f 2/2/2 1/1/1 3/3/3 4/4/4
f 6/6/6 5/5/5 7/7/7 8/8/8
f 10/10/10 9/9/9 11/11/11 12/12/12
f 14/14/14 13/13/13 15/15/15 16/16/16
f 18/18/18 20/20/20 19/19/19 17/17/17
f 22/22/22 21/21/21 23/23/23 24/24/24
f 26/26/26 25/25/25 27/27/27 28/28/28
f 30/30/30 29/29/29 31/31/31 32/32/32
f 34/34/34 33/33/33 35/35/35 36/36/36
f 38/38/38 40/40/40 39/39/39 37/37/37
f 42/42/42 44/44/44 43/43/43 41/41/41
f 46/46/46 48/48/48 47/47/47 45/45/45
f 50/50/50 52/52/52 51/51/51 49/49/49
f 54/54/54 56/56/56 55/55/55 53/53/53
f 58/58/58 60/60/60 59/59/59 57/57/57
f 62/62/62 64/64/64 63/63/63 61/61/61
f 66/66/66 68/68/68 67/67/67 65/65/65
f 74/74/74 73/73/73 69/69/69
f 71/71/71 69/69/69 73/73/73
f 76/76/76 74/74/74 70/70/70
f 69/69/69 70/70/70 74/74/74
f 77/77/77 76/76/76 70/70/70
f 72/72/72 78/78/78 77/77/77
f 70/70/70 72/72/72 77/77/77
f 71/71/71 73/73/73 75/75/75
f 80/80/80 82/82/82 81/81/81 79/79/79
f 84/84/84 86/86/86 85/85/85 83/83/83
f 88/88/88 90/90/90 89/89/89 87/87/87
f 93/93/93 94/94/94 91/91/91
f 94/94/94 93/93/93 92/92/92
f 96/96/96 98/98/98 97/97/97 95/95/95
f 100/100/100 99/99/99 101/101/101
f 103/103/103 102/102/102 104/104/104 105/105/105
f 110/110/110 121/121/121 106/106/106
f 110/110/110 111/111/111 117/117/117
f 117/117/117 121/121/121 110/110/110
f 122/122/122 107/107/107 121/121/121
f 106/106/106 121/121/121 107/107/107
f 107/107/107 122/122/122 114/114/114
f 115/115/115 107/107/107 114/114/114
f 113/113/113 119/119/119 112/112/112
f 118/118/118 119/119/119 113/113/113
f 108/108/108 118/118/118 113/113/113
f 115/115/115 116/116/116 109/109/109
f 118/118/118 109/109/109 116/116/116
f 108/108/108 109/109/109 118/118/118
f 107/107/107 115/115/115 109/109/109
f 119/119/119 120/120/120 112/112/112
f 125/125/125 123/123/123 130/130/130
f 124/124/124 126/126/126 129/129/129 128/128/128
f 128/128/128 127/127/127 130/130/130
f 130/130/130 127/127/127 125/125/125
f 128/128/128 129/129/129 127/127/127
f 132/132/132 134/134/134 133/133/133 131/131/131
f 135/135/135 137/137/137 138/138/138 136/136/136
