# Rhino

o object_1
v -87.975440979003906 45 -58.730670928955078
v -49.975006103515625 45 -67.503761291503906
v -90 45 -67.5
v -51.999568939208984 45 -76.273094177246094
v -87.975440979003906 45 -58.730670928955078
v -90 45 -67.5
v -87.975440979003906 105 -58.730670928955078
v -90 105 -67.5
v -90 45 -67.5
v -51.999568939208984 45 -76.273094177246094
v -90 105 -67.5
v -51.999568939208984 105 -76.273094177246094
v -51.999568939208984 45 -76.273094177246094
v -49.975006103515625 45 -67.503761291503906
v -51.999568939208984 105 -76.273094177246094
v -49.975006103515625 105 -67.503761291503906
v -49.975006103515625 45 -67.503761291503906
v -87.975440979003906 45 -58.730670928955078
v -49.975006103515625 105 -67.503761291503906
v -87.975440979003906 105 -58.730670928955078
v -87.975440979003906 105 -58.730670928955078
v -49.975006103515625 105 -67.503761291503906
v -90 105 -67.5
v -51.999568939208984 105 -76.273094177246094
vt 0.09375 0
vt 0.09375 0.40625
vt 0.18603515625 0
vt 0.18603515625 0.40625
vt 0.37353515625 0
vt 0.28125 0
vt 0.37353515625 0.625
vt 0.28125 0.625
vt 0.375 0.40625
vt 0.375 0.81103515625
vt 0.99853515625 0.40625
vt 0.99853515625 0.81103515625
vt 0.27978515625 0
vt 0.1875 0
vt 0.27978515625 0.625
vt 0.1875 0.625
vt 0.375 0
vt 0.375 0.40478515625
vt 0.99853515625 0
vt 0.99853515625 0.40478515625
vt 0 0
vt 0 0.40625
vt 0.09228515625 0
vt 0.09228515625 0.40625
vn 0 -1 0
vn 0 -1 0
vn 0 -1 0
vn 0 -1 0
vn -0.97437006235122681 0 0.22495105862617493
vn -0.97437006235122681 0 0.22495105862617493
vn -0.97437006235122681 0 0.22495105862617493
vn -0.97437006235122681 0 0.22495105862617493
vn -0.22495105862617493 0 -0.97437006235122681
vn -0.22495105862617493 0 -0.97437006235122681
vn -0.22495105862617493 0 -0.97437006235122681
vn -0.22495105862617493 0 -0.97437006235122681
vn 0.97437006235122681 0 -0.22495105862617493
vn 0.97437006235122681 0 -0.22495105862617493
vn 0.97437006235122681 0 -0.22495105862617493
vn 0.97437006235122681 0 -0.22495105862617493
vn 0.22495105862617493 0 0.97437006235122681
vn 0.22495105862617493 0 0.97437006235122681
vn 0.22495105862617493 0 0.97437006235122681
vn 0.22495105862617493 0 0.97437006235122681
vn 0 1 0
vn 0 1 0
vn 0 1 0
vn 0 1 0
f 2/2/2 1/1/1 3/3/3 4/4/4
f 6/6/6 5/5/5 7/7/7 8/8/8
f 10/10/10 9/9/9 11/11/11 12/12/12
f 14/14/14 13/13/13 15/15/15 16/16/16
f 18/18/18 17/17/17 19/19/19 20/20/20
f 22/22/22 24/24/24 23/23/23 21/21/21
