# Rhino

o object_1
v 0 0 -300
v 0 105 -300
v 0 105 -105
v 0 0 -105
v 0 0 -300
v 0 105 -300
v -105 0 -300
v -105 105 -300
v -105 0 -300
v -105 105 -300
v -105 0 0
v -105 105 0
v -105 71.5 -52.5
v -105 33.5 -52.5
v -105 33.5 -105
v -105 71.5 -105
v -105 33.5 -95.583282470703125
v -105 33.5 -97.539360046386719
v -105 71.5 -97.539360046386719
v -105 71.5 -95.583282470703125
v -105 105 -105
v -105 33.5 -52.5
v -8 33.5 -52.5
v -8 71.5 -52.5
v -105 71.5 -52.5
v -63.041233062744141 71.5 -52.5
v -41.958766937255859 71.5 -52.5
v -8 33.5 -8
v -8 33.5 -52.5
v 0 33.5 -8
v 0 33.5 -52.5
v -105 0 0
v -97 0 -8
v -105 105 0
v -97 105 -8
v -8 0 -97
v -8 33.5 -97
v 0 0 -97
v 0 33.5 -97
v -8 71.5 -97
v -8 105 -97
v 0 71.5 -97
v 0 105 -97
v 0 0 -105
v 0 105 -105
v -8 0 -105
v -8 105 -105
v -8 33.5 -105
v -8 71.5 -105
v -97 0 -8
v 0 0 -8
v -97 105 -8
v 0 105 -8
v -8 71.5 -8
v -8 33.5 -8
v 0 33.5 -8
v 0 71.5 -8
v -8 33.5 -105
v -8 71.5 -105
v -105 33.5 -105
v -105 71.5 -105
v 0 33.5 -52.5
v -50.658229827880859 33.5 -86.976394653320312
v -105 33.5 -97.539360046386719
v -8 33.5 -97
v 0 33.5 -97
v -8 33.5 -105
v -8 33.5 -52.5
v -105 33.5 -105
v -105 33.5 -52.5
v -105 33.5 -95.583282470703125
v -8 71.5 -8
v -8 71.5 -52.5
v 0 71.5 -8
v 0 71.5 -52.5
v -8 33.5 -52.5
v -8 71.5 -52.5
v -8 33.5 -8
v -8 71.5 -8
v -8 71.5 -105
v -8 105 -105
v -8 71.5 -97
v -8 105 -97
v -8 0 -105
v -8 33.5 -105
v -8 0 -97
v -8 33.5 -97
v 0 71.5 -8
v 0 105 -8
v 0 71.5 -97
v 0 71.5 -52.5
v 0 105 -97
v 0 0 -8
v 0 33.5 -8
v 0 0 -97
v 0 33.5 -97
v 0 33.5 -52.5
v -105 0 0
v -105 0 -300
v 0 0 -300
v -97 0 -8
v -8 0 -97
v 0 0 -97
v 0 0 -105
v -8 0 -105
v 0 0 -8
v -105 105 0
v -105 105 -300
v 0 105 -300
v -97 105 -8
v 0 105 -97
v -8 105 -97
v -8 105 -105
v 0 105 -105
v 0 105 -8
v -63.040016174316406 105 -52.494285583496094
v -72.5 105 -97
v -32.5 105 -97
v -41.959983825683594 105 -52.494285583496094
v -105 105 -105
v -32.5 105 -97
v -72.5 105 -97
v -32.5 71.5 -97
v -72.5 71.5 -97
v -72.5 105 -97
v -63.040016174316406 105 -52.494285583496094
v -72.5 71.5 -97
v -63.041233062744141 71.5 -52.5
v -71.218917846679688 71.5 -90.972984313964844
v -71.056121826171875 71.5 -90.207099914550781
v -63.040016174316406 105 -52.494285583496094
v -41.959983825683594 105 -52.494285583496094
v -63.041233062744141 71.5 -52.5
v -41.958766937255859 71.5 -52.5
v -41.959983825683594 105 -52.494285583496094
v -32.5 105 -97
v -41.958766937255859 71.5 -52.5
v -32.5 71.5 -97
v -105 71.5 -52.5
v -63.041233062744141 71.5 -52.5
v -105 71.5 -95.583282470703125
v -71.056121826171875 71.5 -90.207099914550781
v -105 71.5 -105
v 0 71.5 -52.5
v 0 71.5 -97
v -8 71.5 -97
v -8 71.5 -105
v -8 71.5 -52.5
v -105 71.5 -97.539360046386719
v -71.218917846679688 71.5 -90.972984313964844
v -72.5 71.5 -97
v -32.5 71.5 -97
v -41.958766937255859 71.5 -52.5
v -105 33.5 -97.539360046386719
v -50.658229827880859 33.5 -86.976394653320312
v -105 33.5 -95.583282470703125
v -105 71.5 -97.539360046386719
v -71.056121826171875 71.5 -90.207099914550781
v -105 71.5 -95.583282470703125
v -71.218917846679688 71.5 -90.972984313964844
vt 0.5 0.3519091010093689
vt 0.30972170829772949 0.3519091010093689
vt 0.30972170829772949 0
vt 0.5 0
vt 0.80825686454772949 0.44851309061050415
vt 0.61944341659545898 0.44851309061050415
vt 0.80825686454772949 0.63879138231277466
vt 0.61944341659545898 0.63879138231277466
vt 0.61797857284545898 0.3533739447593689
vt 0.42916515469551086 0.3533739447593689
vt 0.61797857284545898 0.8955613374710083
vt 0.42916515469551086 0.8955613374710083
vt 0.48940563201904297 0.800678551197052
vt 0.55773812532424927 0.800678551197052
vt 0.55773812532424927 0.7057957649230957
vt 0.48940563201904297 0.7057957649230957
vt 0.55773812532424927 0.72281450033187866
vt 0.55773812532424927 0.71927934885025024
vt 0.48940563201904297 0.71927934885025024
vt 0.48940563201904297 0.72281450033187866
vt 0.42916515469551086 0.7057957649230957
vt 0 0
vt 0.17578089237213135 0
vt 0.17578089237213135 0.068862617015838623
vt 0 0.068862617015838623
vt 0.076036594808101654 0.068862617015838623
vt 0.11424168944358826 0.068862617015838623
vt 0.092522807419300079 0.3533739447593689
vt 0.092522807419300079 0.43401569128036499
vt 0.079490259289741516 0.3533739447593689
vt 0.079490259289741516 0.43401569128036499
vt 0 0.074678458273410797
vt 0 0.095180869102478027
vt 0.19027827680110931 0.074678458273410797
vt 0.19027827680110931 0.095180869102478027
vt 0.021500688046216965 0.3533739447593689
vt 0.021500688046216965 0.41408178210258484
vt 0.034533236175775528 0.3533739447593689
vt 0.034533236175775528 0.41408178210258484
vt 0.0070032952353358269 0.3533739447593689
vt 0.0070032952353358269 0.41408178210258484
vt 0.020035844296216965 0.3533739447593689
vt 0.020035844296216965 0.41408178210258484
vt 0.03994084894657135 0.60429036617279053
vt 0.03994084894657135 0.79456865787506104
vt 0.053633797913789749 0.60429036617279053
vt 0.053633797913789749 0.79456865787506104
vt 0.053633797913789749 0.66499823331832886
vt 0.053633797913789749 0.73386085033416748
vt 0 0.16274736821651459
vt 0 0.33852824568748474
vt 0.19027827680110931 0.16274736821651459
vt 0.19027827680110931 0.33852824568748474
vt 0.12957045435905457 0.32403087615966797
vt 0.060707837343215942 0.32403087615966797
vt 0.060707837343215942 0.33852824568748474
vt 0.12957045435905457 0.33852824568748474
vt 0.055098641663789749 0.7910836935043335
vt 0.055098641663789749 0.85994631052017212
vt 0.2308795303106308 0.7910836935043335
vt 0.2308795303106308 0.85994631052017212
vt 0.71458256244659424 0.19027827680110931
vt 0.77609783411026001 0.098476745188236237
vt 0.79494506120681763 0
vt 0.79398268461227417 0.17578089237213135
vt 0.79398268461227417 0.19027827680110931
vt 0.80825686454772949 0.17578089237213135
vt 0.71458256244659424 0.17578089237213135
vt 0.80825686454772949 0
vt 0.71458256244659424 0
vt 0.79145491123199463 0
vt 0.064992867410182953 0.3533739447593689
vt 0.064992867410182953 0.43401569128036499
vt 0.078025415539741516 0.3533739447593689
vt 0.078025415539741516 0.43401569128036499
vt 0.1613854318857193 0.48022615909576416
vt 0.093987651169300079 0.48022615909576416
vt 0.1613854318857193 0.56086790561676025
vt 0.093987651169300079 0.56086790561676025
vt 0.05049547553062439 0.3533739447593689
vt 0.05049547553062439 0.41408178210258484
vt 0.063528023660182953 0.3533739447593689
vt 0.063528023660182953 0.41408178210258484
vt 0.035998079925775528 0.3533739447593689
vt 0.035998079925775528 0.41408178210258484
vt 0.04903063178062439 0.3533739447593689
vt 0.04903063178062439 0.41408178210258484
vt 0.055098641663789749 0.69768702983856201
vt 0.055098641663789749 0.75839489698410034
vt 0.21638214588165283 0.69768702983856201
vt 0.13574038445949554 0.69768702983856201
vt 0.21638214588165283 0.75839489698410034
vt 0.055098641663789749 0.60429036617279053
vt 0.055098641663789749 0.66499823331832886
vt 0.21638214588165283 0.60429036617279053
vt 0.21638214588165283 0.66499823331832886
vt 0.13574038445949554 0.66499823331832886
vt 0.42770031094551086 0.3533739447593689
vt 0.42770031094551086 0.8955613374710083
vt 0.23888686299324036 0.8955613374710083
vt 0.41331452131271362 0.36783227324485779
vt 0.2532726526260376 0.52868121862411499
vt 0.23888686299324036 0.52868121862411499
vt 0.23888686299324036 0.54313951730728149
vt 0.2532726526260376 0.54313951730728149
vt 0.23888686299324036 0.36783227324485779
vt 0.80972170829772949 0
vt 0.80972170829772949 0.5436522364616394
vt 0.99853515625 0.5436522364616394
vt 0.82410752773284912 0.014497393742203712
vt 0.99853515625 0.17578089237213135
vt 0.98414939641952515 0.17578089237213135
vt 0.98414939641952515 0.19027827680110931
vt 0.99853515625 0.19027827680110931
vt 0.99853515625 0.014497393742203712
vt 0.88517510890960693 0.09512878954410553
vt 0.86816400289535522 0.17578089237213135
vt 0.94009292125701904 0.17578089237213135
vt 0.92308175563812256 0.09512878954410553
vt 0.80972170829772949 0.19027827680110931
vt 0.072486966848373413 0.096912413835525513
vt 0 0.096912413835525513
vt 0.072486966848373413 0.15762025117874146
vt 0 0.15762025117874146
vt 0.16643725335597992 0.3533739447593689
vt 0.16643725335597992 0.43582788109779358
vt 0.22714509069919586 0.3533739447593689
vt 0.22714509069919586 0.43582788109779358
vt 0.22714509069919586 0.36453995108604431
vt 0.22714509069919586 0.36595886945724487
vt 0.038200695067644119 0.60429036617279053
vt 0 0.60429036617279053
vt 0.038200695067644119 0.66499823331832886
vt 0 0.66499823331832886
vt 0.093987651169300079 0.3533739447593689
vt 0.093987651169300079 0.43582788109779358
vt 0.15469548106193542 0.3533739447593689
vt 0.15469548106193542 0.43582788109779358
vt 0.1628502756357193 0.48022615909576416
vt 0.23742201924324036 0.48022615909576416
vt 0.1628502756357193 0.55830055475234985
vt 0.22317744791507721 0.54855799674987793
vt 0.61944341659545898 0
vt 0.71311771869659424 0.19027827680110931
vt 0.63371759653091431 0.19027827680110931
vt 0.63371759653091431 0.17578089237213135
vt 0.61944341659545898 0.17578089237213135
vt 0.71311771869659424 0.17578089237213135
vt 0.63275521993637085 0
vt 0.64447146654129028 0.061217203736305237
vt 0.63371759653091431 0.058895662426948547
vt 0.63371759653091431 0.13138262927532196
vt 0.71311771869659424 0.11424168944358826
vt 0.0035016476176679134 0.3533739447593689
vt 0.0052524716593325138 0.45369386672973633
vt 0.0070032952353358269 0.35398960113525391
vt 0 0.3533739447593689
vt 0.0035016476176679134 0.41626855731010437
vt 0.0035016476176679134 0.35398960113525391
vt 0 0.41573694348335266
vn 1 0 0
vn 1 0 0
vn 1 0 0
vn 1 0 0
vn 0 0 -1
vn 0 0 -1
vn 0 0 -1
vn 0 0 -1
vn -1 0 0
vn -1 0 0
vn -1 0 0
vn -1 0 0
vn -1 0 0
vn -1 0 0
vn -1 0 0
vn -1 0 0
vn -1 0 0
vn -1 0 0
vn -1 0 0
vn -1 0 0
vn -1 0 0
vn 0 0 -1
vn 0 0 -1
vn 0 0 -1
vn 0 0 -1
vn 0 0 -1
vn 0 0 -1
vn 0 1 0
vn 0 1 0
vn 0 1 0
vn 0 1 0
vn 0.70710676908493042 0 0.70710676908493042
vn 0.70710676908493042 0 0.70710676908493042
vn 0.70710676908493042 0 0.70710676908493042
vn 0.70710676908493042 0 0.70710676908493042
vn 0 0 -1
vn 0 0 -1
vn 0 0 -1
vn 0 0 -1
vn 0 0 -1
vn 0 0 -1
vn 0 0 -1
vn 0 0 -1
vn 0 0 1
vn 0 0 1
vn 0 0 1
vn 0 0 1
vn 0 0 1
vn 0 0 1
vn 0 0 1
vn 0 0 1
vn 0 0 1
vn 0 0 1
vn 0 0 1
vn 0 0 1
vn 0 0 1
vn 0 0 1
vn 0 0 1
vn 0 0 1
vn 0 0 1
vn 0 0 1
vn 0 1 0
vn 0 1 0
vn 0 1 0
vn 0 1 0
vn 0 1 0
vn 0 1 0
vn 0 1 0
vn 0 1 0
vn 0 1 0
vn 0 1 0
vn 0 -1 0
vn 0 -1 0
vn 0 -1 0
vn 0 -1 0
vn 1 0 0
vn 1 0 0
vn 1 0 0
vn 1 0 0
vn 1 0 0
vn 1 0 0
vn 1 0 0
vn 1 0 0
vn 1 0 0
vn 1 0 0
vn 1 0 0
vn 1 0 0
vn 1 0 0
vn 1 0 0
vn 1 0 0
vn 1 0 0
vn 1 0 0
vn 1 0 0
vn 1 0 0
vn 1 0 0
vn 1 0 0
vn 1 0 0
vn 0 -1 0
vn 0 -1 0
vn 0 -1 0
vn 0 -1 0
vn 0 -1 0
vn 0 -1 0
vn 0 -1 0
vn 0 -1 0
vn 0 -1 0
vn 0 1 0
vn 0 1 0
vn 0 1 0
vn 0 1 0
vn 0 1 0
vn 0 1 0
vn 0 1 0
vn 0 1 0
vn 0 1 0
vn 0 1 0
vn 0 1 0
vn 0 1 0
vn 0 1 0
vn 0 1 0
vn 0 0 1
vn 0 0 1
vn 0 0 1
vn 0 0 1
vn 0.97814762592315674 0 -0.20791168510913849
vn 0.97814762592315674 0 -0.20791168510913849
vn 0.97814762592315674 0 -0.20791168510913849
vn 0.97814762592315674 0 -0.20791168510913849
vn 0.97814762592315674 0 -0.20791168510913849
vn 0.97814762592315674 0 -0.20791168510913849
vn 0 0 -1
vn 0 0 -1
vn 0 0 -1
vn 0 0 -1
vn -0.97814762592315674 0 -0.20791168510913849
vn -0.97814762592315674 0 -0.20791168510913849
vn -0.97814762592315674 0 -0.20791168510913849
vn -0.97814762592315674 0 -0.20791168510913849
vn 0 -1 0
vn 0 -1 0
vn 0 -1 0
vn 0 -1 0
vn 0 -1 0
vn 0 -1 0
vn 0 -1 0
vn 0 -1 0
vn 0 -1 0
vn 0 -1 0
vn 0 -1 0
vn 0 -1 0
vn 0 -1 0
vn 0 -1 0
vn 0 -1 0
vn 0 1 0
vn 0 1 0
vn 0 1 0
vn 0 -1 0
vn 0 -1 0
vn 0 -1 0
vn 0 -1 0
f 3/3/3 4/4/4 1/1/1 2/2/2
f 6/6/6 5/5/5 7/7/7 8/8/8
f 18/18/18 15/15/15 11/11/11
f 9/9/9 11/11/11 15/15/15
f 16/16/16 9/9/9 15/15/15
f 21/21/21 10/10/10 16/16/16
f 9/9/9 16/16/16 10/10/10
f 16/16/16 19/19/19 21/21/21
f 14/14/14 17/17/17 11/11/11
f 18/18/18 11/11/11 17/17/17
f 11/11/11 12/12/12 13/13/13 14/14/14
f 20/20/20 13/13/13 21/21/21
f 13/13/13 12/12/12 21/21/21
f 19/19/19 20/20/20 21/21/21
f 25/25/25 26/26/26 22/22/22
f 22/22/22 26/26/26 27/27/27 23/23/23
f 24/24/24 23/23/23 27/27/27
f 30/30/30 31/31/31 29/29/29 28/28/28
f 33/33/33 35/35/35 34/34/34 32/32/32
f 37/37/37 39/39/39 38/38/38 36/36/36
f 41/41/41 43/43/43 42/42/42 40/40/40
f 45/45/45 49/49/49 48/48/48 44/44/44
f 46/46/46 44/44/44 48/48/48
f 45/45/45 47/47/47 49/49/49
f 51/51/51 55/55/55 50/50/50
f 50/50/50 55/55/55 54/54/54 52/52/52
f 55/55/55 51/51/51 56/56/56
f 53/53/53 52/52/52 54/54/54
f 54/54/54 57/57/57 53/53/53
f 59/59/59 61/61/61 60/60/60 58/58/58
f 63/63/63 71/71/71 70/70/70
f 65/65/65 68/68/68 62/62/62
f 70/70/70 68/68/68 63/63/63
f 63/63/63 68/68/68 65/65/65
f 63/63/63 67/67/67 69/69/69
f 67/67/67 63/63/63 65/65/65
f 62/62/62 66/66/66 65/65/65
f 69/69/69 64/64/64 63/63/63
f 73/73/73 75/75/75 74/74/74 72/72/72
f 77/77/77 79/79/79 78/78/78 76/76/76
f 81/81/81 83/83/83 82/82/82 80/80/80
f 85/85/85 87/87/87 86/86/86 84/84/84
f 91/91/91 89/89/89 88/88/88
f 92/92/92 91/91/91 90/90/90
f 89/89/89 91/91/91 92/92/92
f 97/97/97 94/94/94 93/93/93
f 96/96/96 97/97/97 95/95/95
f 93/93/93 95/95/95 97/97/97
f 99/99/99 101/101/101 98/98/98
f 106/106/106 102/102/102 103/103/103
f 102/102/102 106/106/106 101/101/101
f 102/102/102 101/101/101 105/105/105
f 99/99/99 105/105/105 101/101/101
f 104/104/104 105/105/105 100/100/100
f 99/99/99 100/100/100 105/105/105
f 110/110/110 120/120/120 107/107/107
f 110/110/110 115/115/115 119/119/119 116/116/116
f 116/116/116 117/117/117 110/110/110
f 117/117/117 108/108/108 120/120/120
f 118/118/118 108/108/108 117/117/117
f 110/110/110 117/117/117 120/120/120
f 112/112/112 118/118/118 119/119/119
f 115/115/115 112/112/112 119/119/119
f 111/111/111 112/112/112 115/115/115
f 118/118/118 112/112/112 113/113/113
f 113/113/113 114/114/114 109/109/109
f 118/118/118 113/113/113 109/109/109
f 108/108/108 118/118/118 109/109/109
f 122/122/122 124/124/124 123/123/123 121/121/121
f 126/126/126 128/128/128 130/130/130 125/125/125
f 127/127/127 125/125/125 129/129/129
f 125/125/125 130/130/130 129/129/129
f 132/132/132 134/134/134 133/133/133 131/131/131
f 136/136/136 138/138/138 137/137/137 135/135/135
f 142/142/142 139/139/139 141/141/141
f 139/139/139 142/142/142 140/140/140
f 143/143/143 151/151/151 149/149/149
f 150/150/150 149/149/149 151/151/151
f 147/147/147 152/152/152 151/151/151 143/143/143
f 146/146/146 148/148/148 153/153/153 152/152/152
f 144/144/144 148/148/148 146/146/146
f 144/144/144 146/146/146 145/145/145
f 152/152/152 147/147/147 146/146/146
f 154/154/154 156/156/156 155/155/155
f 160/160/160 158/158/158 159/159/159 157/157/157
