# Rhino

o object_1
v -114.46399688720703 33.5 -99.378974914550781
v -50.658229827880859 33.5 -86.976394653320312
v -114.85797119140625 33.5 -97.144630432128906
v -114.46399688720703 33.5 -99.378974914550781
v -114.85797119140625 33.5 -97.144630432128906
v -114.46399688720703 71.5 -99.378974914550781
v -114.85797119140625 71.5 -97.144630432128906
v -114.85797119140625 33.5 -97.144630432128906
v -50.658229827880859 33.5 -86.976394653320312
v -114.85797119140625 71.5 -97.144630432128906
v -50.658229827880859 71.5 -86.976394653320312
v -50.658229827880859 33.5 -86.976394653320312
v -114.46399688720703 33.5 -99.378974914550781
v -50.658229827880859 71.5 -86.976394653320312
v -114.46399688720703 71.5 -99.378974914550781
v -114.46399688720703 71.5 -99.378974914550781
v -50.658229827880859 71.5 -86.976394653320312
v -114.85797119140625 71.5 -97.144630432128906
vt 0.97101253271102905 0
vt 0.98477387428283691 0.83047127723693848
vt 0.99853515625 0
vt 0 0
vt 0 0.027522601187229156
vt 0.48550626635551453 0
vt 0.48550626635551453 0.027522601187229156
vt 0.48550626635551453 0.057974889874458313
vt 0.48550626635551453 0.8869813084602356
vt 0.96954768896102905 0.057974889874458313
vt 0.96954768896102905 0.8869813084602356
vt 0 0.057974889874458313
vt 0 0.8869813084602356
vt 0.48404142260551453 0.057974889874458313
vt 0.48404142260551453 0.8869813084602356
vt 0.83047127723693848 0.028987444937229156
vt 0 0.042748745530843735
vt 0.83047127723693848 0.056510046124458313
vn 0 -1 0
vn 0 -1 0
vn 0 -1 0
vn -0.98480772972106934 0 -0.1736481785774231
vn -0.98480772972106934 0 -0.1736481785774231
vn -0.98480772972106934 0 -0.1736481785774231
vn -0.98480772972106934 0 -0.1736481785774231
vn -0.15643446147441864 0 0.98768836259841919
vn -0.15643446147441864 0 0.98768836259841919
vn -0.15643446147441864 0 0.98768836259841919
vn -0.15643446147441864 0 0.98768836259841919
vn 0.19080899655818939 0 -0.98162716627120972
vn 0.19080899655818939 0 -0.98162716627120972
vn 0.19080899655818939 0 -0.98162716627120972
vn 0.19080899655818939 0 -0.98162716627120972
vn 0 1 0
vn 0 1 0
vn 0 1 0
f 1/1/1 2/2/2 3/3/3
f 5/5/5 7/7/7 6/6/6 4/4/4
f 9/9/9 11/11/11 10/10/10 8/8/8
f 13/13/13 15/15/15 14/14/14 12/12/12
f 16/16/16 18/18/18 17/17/17
