# Rhino

o object_1
v -32.5 105 -97
v -72.5 105 -97
v -32.5 71.5 -97
v -72.5 71.5 -97
v -72.5 105 -97
v -63.040016174316406 105 -52.494285583496094
v -72.5 71.5 -97
v -63.040016174316406 71.5 -52.494285583496094
v -63.040016174316406 105 -52.494285583496094
v -41.959983825683594 105 -52.494285583496094
v -63.040016174316406 71.5 -52.494285583496094
v -41.959983825683594 71.5 -52.494285583496094
v -41.959983825683594 105 -52.494285583496094
v -32.5 105 -97
v -41.959983825683594 71.5 -52.494285583496094
v -32.5 71.5 -97
v -32.5 71.5 -97
v -41.959983825683594 71.5 -52.494285583496094
v -72.5 71.5 -97
v -63.040016174316406 71.5 -52.494285583496094
v -105 105 0
v -105 305 0
v 0 105 0
v 0 305 0
v 0 105 0
v 0 305 0
v 0 105 -105
v 0 305 -105
v 0 105 -105
v 0 305 -105
v -105 105 -105
v -105 305 -105
v -105 105 -105
v -105 305 -105
v -105 105 0
v -105 305 0
v -105 105 0
v 0 105 0
v -105 105 -105
v 0 105 -105
v -32.5 105 -97
v -72.5 105 -97
v -63.040016174316406 105 -52.494285583496094
v -41.959983825683594 105 -52.494285583496094
v -105 305 0
v -105 305 -105
v 0 305 0
v 0 305 -105
vt 0.061319679021835327 0.4739336371421814
vt 0.061319679021835327 0.56872040033340454
vt 0.14070357382297516 0.4739336371421814
vt 0.14070357382297516 0.56872040033340454
vt 0.079383887350559235 0.69565701484680176
vt 0.079383887350559235 0.80347687005996704
vt 0.15730293095111847 0.69565701484680176
vt 0.15730293095111847 0.80347687005996704
vt 0.049952693283557892 0.4739336371421814
vt 0 0.4739336371421814
vt 0.049952693283557892 0.55331754684448242
vt 0 0.55331754684448242
vt 0 0.69565701484680176
vt 0 0.80347687005996704
vt 0.077919043600559235 0.69565701484680176
vt 0.077919043600559235 0.80347687005996704
vt 0.65639811754226685 0.4739336371421814
vt 0.65639811754226685 0.58175355195999146
vt 0.74971997737884521 0.4739336371421814
vt 0.74971997737884521 0.58175355195999146
vt 0.40758293867111206 0.4739336371421814
vt 0.40758293867111206 0.94640243053436279
vt 0.65493327379226685 0.4739336371421814
vt 0.65493327379226685 0.94640243053436279
vt 0.15876777470111847 0.4739336371421814
vt 0.15876777470111847 0.94640243053436279
vt 0.40611809492111206 0.4739336371421814
vt 0.40611809492111206 0.94640243053436279
vt 0.32819905877113342 0
vt 0.32819905877113342 0.4724687933921814
vt 0.57701420783996582 0
vt 0.57701420783996582 0.4724687933921814
vt 0 0
vt 0 0.4724687933921814
vt 0.24881516396999359 0
vt 0.24881516396999359 0.4724687933921814
vt 0.90521329641342163 0
vt 0.65639811754226685 0
vt 0.90521329641342163 0.24881516396999359
vt 0.65639811754226685 0.24881516396999359
vt 0.73341232538223267 0.22985781729221344
vt 0.82819902896881104 0.22985781729221344
vt 0.8057820200920105 0.12439403682947159
vt 0.7558293342590332 0.12439403682947159
vt 0.75118482112884521 0.4739336371421814
vt 0.75118482112884521 0.72274881601333618
vt 0.99853515625 0.4739336371421814
vt 0.99853515625 0.72274881601333618
vn 0 0 -1
vn 0 0 -1
vn 0 0 -1
vn 0 0 -1
vn -0.97814762592315674 0 0.20791168510913849
vn -0.97814762592315674 0 0.20791168510913849
vn -0.97814762592315674 0 0.20791168510913849
vn -0.97814762592315674 0 0.20791168510913849
vn 0 0 1
vn 0 0 1
vn 0 0 1
vn 0 0 1
vn 0.97814762592315674 0 0.20791168510913849
vn 0.97814762592315674 0 0.20791168510913849
vn 0.97814762592315674 0 0.20791168510913849
vn 0.97814762592315674 0 0.20791168510913849
vn 0 -1 0
vn 0 -1 0
vn 0 -1 0
vn 0 -1 0
vn 0 0 1
vn 0 0 1
vn 0 0 1
vn 0 0 1
vn 1 0 0
vn 1 0 0
vn 1 0 0
vn 1 0 0
vn 0 0 -1
vn 0 0 -1
vn 0 0 -1
vn 0 0 -1
vn -1 0 0
vn -1 0 0
vn -1 0 0
vn -1 0 0
vn 0 -1 0
vn 0 -1 0
vn 0 -1 0
vn 0 -1 0
vn 0 -1 0
vn 0 -1 0
vn 0 -1 0
vn 0 -1 0
vn 0 1 0
vn 0 1 0
vn 0 1 0
vn 0 1 0
f 2/2/2 1/1/1 3/3/3 4/4/4
f 6/6/6 5/5/5 7/7/7 8/8/8
f 10/10/10 9/9/9 11/11/11 12/12/12
f 14/14/14 13/13/13 15/15/15 16/16/16
f 18/18/18 20/20/20 19/19/19 17/17/17
f 22/22/22 21/21/21 23/23/23 24/24/24
f 26/26/26 25/25/25 27/27/27 28/28/28
f 30/30/30 29/29/29 31/31/31 32/32/32
f 34/34/34 33/33/33 35/35/35 36/36/36
f 44/44/44 37/37/37 43/43/43
f 39/39/39 43/43/43 37/37/37
f 40/40/40 38/38/38 44/44/44
f 37/37/37 44/44/44 38/38/38
f 39/39/39 40/40/40 41/41/41 42/42/42
f 43/43/43 39/39/39 42/42/42
f 44/44/44 41/41/41 40/40/40
f 46/46/46 45/45/45 47/47/47 48/48/48
