# Rhino

o object_1
v -110 33.5 -52.5
v -110 71.5 -52.5
v -8 33.5 -52.5
v -8 71.5 -52.5
v -110 33.5 -96.375205993652344
v -50.658229827880859 33.5 -86.976394653320312
v -110 71.5 -96.375205993652344
v -50.658229827880859 71.5 -86.976394653320312
v -50.658229827880859 33.5 -86.976394653320312
v -110 33.5 -98.511260986328125
v -50.658229827880859 71.5 -86.976394653320312
v -110 71.5 -98.511260986328125
v -110 33.5 -105
v -110 71.5 -105
v -110 33.5 -98.511260986328125
v -110 71.5 -98.511260986328125
v -110 33.5 -96.375205993652344
v -110 71.5 -96.375205993652344
v -110 33.5 -52.5
v -110 71.5 -52.5
v -8 33.5 -8
v -8 33.5 -52.5
v 0 33.5 -8
v 0 33.5 -52.5
v -8 0 -97
v 0 0 -97
v -8 0 -105
v 0 0 -105
v -8 105 -97
v -8 105 -105
v 0 105 -97
v 0 105 -105
v -105 0 0
v 0 0 0
v -97 0 -8
v 0 0 -8
v -105 0 0
v -97 0 -8
v -105 105 0
v -97 105 -8
v 0 0 0
v -105 0 0
v 0 105 0
v -105 105 0
v 0 33.5 0
v 0 71.5 0
v -105 105 0
v 0 105 0
v -97 105 -8
v 0 105 -8
v 0 0 0
v 200 0 0
v 0 0 -105
v 200 0 -105
v 0 0 -97
v 0 0 -8
v 0 0 -105
v 200 0 -105
v 0 105 -105
v 200 105 -105
v 0 33.5 -105
v 0 71.5 -105
v 200 0 -105
v 200 0 0
v 200 105 -105
v 200 105 0
v 200 0 0
v 0 0 0
v 200 105 0
v 0 105 0
v 0 71.5 0
v 0 33.5 0
v 0 105 0
v 200 105 0
v 0 105 -105
v 200 105 -105
v 0 105 -97
v 0 105 -8
v 0 0 -8
v 0 0 -97
v 0 33.5 -8
v 0 33.5 -97
v 0 33.5 -52.5
v -8 0 -97
v -8 33.5 -97
v 0 0 -97
v 0 33.5 -97
v -8 71.5 -97
v -8 105 -97
v 0 71.5 -97
v 0 105 -97
v 0 0 -105
v 0 105 -105
v -8 0 -105
v -8 105 -105
v -8 33.5 -105
v -8 71.5 -105
v 0 71.5 -105
v 0 33.5 -105
v -97 0 -8
v 0 0 -8
v -97 105 -8
v 0 105 -8
v 0 71.5 -8
v -8 71.5 -8
v -8 33.5 -8
v 0 33.5 -8
v 0 71.5 -8
v 0 71.5 -97
v 0 105 -8
v 0 105 -97
v 0 71.5 -52.5
v -8 33.5 -105
v -8 71.5 -105
v -110 33.5 -105
v -110 71.5 -105
v -110 33.5 -52.5
v 0 33.5 -52.5
v -110 33.5 -105
v -8 33.5 -52.5
v 0 33.5 -97
v -110 33.5 -98.511260986328125
v -50.658229827880859 33.5 -86.976394653320312
v -110 33.5 -96.375205993652344
v -8 33.5 -97
v -8 33.5 -105
v -110 71.5 -52.5
v -110 71.5 -105
v 0 71.5 -52.5
v -8 71.5 -52.5
v 0 71.5 -97
v -110 71.5 -98.511260986328125
v -50.658229827880859 71.5 -86.976394653320312
v -110 71.5 -96.375205993652344
v -8 71.5 -97
v -8 71.5 -105
v -8 71.5 -8
v -8 71.5 -52.5
v 0 71.5 -8
v 0 71.5 -52.5
v -8 33.5 -52.5
v -8 71.5 -52.5
v -8 33.5 -8
v -8 71.5 -8
v -8 71.5 -105
v -8 105 -105
v -8 71.5 -97
v -8 105 -97
v -8 0 -105
v -8 33.5 -105
v -8 0 -97
v -8 33.5 -97
vt 0.24505889415740967 0
vt 0.24505889415740967 0.089411765336990356
vt 0.48505890369415283 0
vt 0.48505890369415283 0.089411765336990356
vt 0.24505889415740967 0.092700965702533722
vt 0.24505889415740967 0.23406913876533508
vt 0.33447065949440002 0.092700965702533722
vt 0.33447065949440002 0.23406913876533508
vt 0.36958825588226318 0.092700965702533722
vt 0.36958825588226318 0.23494201898574829
vt 0.45900002121925354 0.092700965702533722
vt 0.45900002121925354 0.23494201898574829
vt 0.85517734289169312 0.47058823704719543
vt 0.85517734289169312 0.56000000238418579
vt 0.87044495344161987 0.47058823704719543
vt 0.87044495344161987 0.56000000238418579
vt 0.11697153002023697 0.090498603880405426
vt 0.11697153002023697 0.17991036176681519
vt 0.22020730376243591 0.090498603880405426
vt 0.22020730376243591 0.17991036176681519
vt 0.22461813688278198 0.1931537389755249
vt 0.22461813688278198 0.29785960912704468
vt 0.20710708200931549 0.1931537389755249
vt 0.20710708200931549 0.29785960912704468
vt 0.75999999046325684 0.52405446767807007
vt 0.74117648601531982 0.52405446767807007
vt 0.75999999046325684 0.54287797212600708
vt 0.74117648601531982 0.54287797212600708
vt 0.75999999046325684 0.47058823704719543
vt 0.74117648601531982 0.47058823704719543
vt 0.75999999046325684 0.48941177129745483
vt 0.74117648601531982 0.48941177129745483
vt 0.090135551989078522 0.090498603880405426
vt 0.090135551989078522 0.33755743503570557
vt 0.11550668627023697 0.090498603880405426
vt 0.11550668627023697 0.33755743503570557
vt 0.74117648601531982 0.60470718145370483
vt 0.74117648601531982 0.63042891025543213
vt 0.98823529481887817 0.60470718145370483
vt 0.98823529481887817 0.63042891025543213
vt 0.73971164226531982 0.71764707565307617
vt 0.49411764740943909 0.71764707565307617
vt 0.73971164226531982 0.96324104070663452
vt 0.49411764740943909 0.96324104070663452
vt 0.73971164226531982 0.79600322246551514
vt 0.73971164226531982 0.88488483428955078
vt 0.98823529481887817 0.57752066850662231
vt 0.74117648601531982 0.57752066850662231
vt 0.98823529481887817 0.60324233770370483
vt 0.74117648601531982 0.60324233770370483
vt 0.24705882370471954 0.47680607438087463
vt 0.24705882370471954 0.94739431142807007
vt 0.49265280365943909 0.47680607438087463
vt 0.49265280365943909 0.94739431142807007
vt 0.47394087910652161 0.47680607438087463
vt 0.26577073335647583 0.47680607438087463
vt 0 0.47680607438087463
vt 0 0.94739431142807007
vt 0.24559397995471954 0.47680607438087463
vt 0.24559397995471954 0.94739431142807007
vt 0.078356176614761353 0.47680607438087463
vt 0.16723780333995819 0.47680607438087463
vt 0.73971164226531982 0.47058823704719543
vt 0.49411764740943909 0.47058823704719543
vt 0.73971164226531982 0.71618223190307617
vt 0.49411764740943909 0.71618223190307617
vt 0.74705880880355835 0
vt 0.74705880880355835 0.46912339329719543
vt 0.9941176176071167 0
vt 0.9941176176071167 0.46912339329719543
vt 0.9152941107749939 0.46912339329719543
vt 0.82588237524032593 0.46912339329719543
vt 0.49411764740943909 0
vt 0.49411764740943909 0.46912339329719543
vt 0.74117648601531982 0
vt 0.74117648601531982 0.46912339329719543
vt 0.72235292196273804 0
vt 0.51294118165969849 0
vt 0.20941177010536194 0
vt 0 0
vt 0.20941177010536194 0.078823529183864594
vt 0 0.078823529183864594
vt 0.10470588505268097 0.078823529183864594
vt 0.92399942874908447 0.47058823704719543
vt 0.92399942874908447 0.54941177368164062
vt 0.94282293319702148 0.47058823704719543
vt 0.94282293319702148 0.54941177368164062
vt 0.81717705726623535 0.47058823704719543
vt 0.81717705726623535 0.54941177368164062
vt 0.83600062131881714 0.47058823704719543
vt 0.83600062131881714 0.54941177368164062
vt 0.22608298063278198 0.1931537389755249
vt 0.22608298063278198 0.44021254777908325
vt 0.24359405040740967 0.1931537389755249
vt 0.24359405040740967 0.44021254777908325
vt 0.24359405040740967 0.27197727560997009
vt 0.24359405040740967 0.36138901114463806
vt 0.22608298063278198 0.36138901114463806
vt 0.22608298063278198 0.27197727560997009
vt 0.24505889415740967 0.24017466604709625
vt 0.24505889415740967 0.4684099555015564
vt 0.49211770296096802 0.24017466604709625
vt 0.49211770296096802 0.4684099555015564
vt 0.41329419612884521 0.4684099555015564
vt 0.41329419612884521 0.449586421251297
vt 0.32388243079185486 0.449586421251297
vt 0.32388243079185486 0.4684099555015564
vt 0.95058822631835938 0.63189375400543213
vt 0.74117648601531982 0.63189375400543213
vt 0.95058822631835938 0.71071732044219971
vt 0.74117648601531982 0.71071732044219971
vt 0.8458823561668396 0.63189375400543213
vt 0.088670708239078522 0.090498603880405426
vt 0 0.090498603880405426
vt 0.088670708239078522 0.33049860596656799
vt 0 0.33049860596656799
vt 0.99853515625 0.83854967355728149
vt 0.74117648601531982 0.83854967355728149
vt 0.99853515625 0.96207910776138306
vt 0.75989347696304321 0.83854967355728149
vt 0.74117648601531982 0.94325554370880127
vt 0.99853515625 0.94681143760681152
vt 0.85969769954681396 0.91967058181762695
vt 0.99853515625 0.94178545475006104
vt 0.75989347696304321 0.94325554370880127
vt 0.75989347696304321 0.96207910776138306
vt 0.74117648601531982 0.71239346265792847
vt 0.74117648601531982 0.83592283725738525
vt 0.99853515625 0.71239346265792847
vt 0.97981816530227661 0.71239346265792847
vt 0.99853515625 0.81709933280944824
vt 0.74117648601531982 0.8206552267074585
vt 0.88001394271850586 0.79351437091827393
vt 0.74117648601531982 0.81562924385070801
vt 0.97981816530227661 0.81709933280944824
vt 0.97981816530227661 0.83592283725738525
vt 0.96199971437454224 0.47058823704719543
vt 0.96199971437454224 0.5752941370010376
vt 0.98082321882247925 0.47058823704719543
vt 0.98082321882247925 0.5752941370010376
vt 0.20564223825931549 0.1931537389755249
vt 0.11697153002023697 0.1931537389755249
vt 0.20564223825931549 0.29785960912704468
vt 0.11697153002023697 0.29785960912704468
vt 0.77917677164077759 0.47058823704719543
vt 0.77917677164077759 0.54941177368164062
vt 0.7980002760887146 0.47058823704719543
vt 0.7980002760887146 0.54941177368164062
vt 0.88599908351898193 0.47058823704719543
vt 0.88599908351898193 0.54941177368164062
vt 0.90482264757156372 0.47058823704719543
vt 0.90482264757156372 0.54941177368164062
vn 0 0 1
vn 0 0 1
vn 0 0 1
vn 0 0 1
vn 0.15643446147441864 0 -0.98768836259841919
vn 0.15643446147441864 0 -0.98768836259841919
vn 0.15643446147441864 0 -0.98768836259841919
vn 0.15643446147441864 0 -0.98768836259841919
vn -0.19080899655818939 0 0.98162716627120972
vn -0.19080899655818939 0 0.98162716627120972
vn -0.19080899655818939 0 0.98162716627120972
vn -0.19080899655818939 0 0.98162716627120972
vn -1 0 0
vn -1 0 0
vn -1 0 0
vn -1 0 0
vn -1 0 0
vn -1 0 0
vn -1 0 0
vn -1 0 0
vn 0 -1 0
vn 0 -1 0
vn 0 -1 0
vn 0 -1 0
vn 0 -1 0
vn 0 -1 0
vn 0 -1 0
vn 0 -1 0
vn 0 1 0
vn 0 1 0
vn 0 1 0
vn 0 1 0
vn 0 -1 0
vn 0 -1 0
vn 0 -1 0
vn 0 -1 0
vn -0.70710676908493042 0 -0.70710676908493042
vn -0.70710676908493042 0 -0.70710676908493042
vn -0.70710676908493042 0 -0.70710676908493042
vn -0.70710676908493042 0 -0.70710676908493042
vn 0 0 1
vn 0 0 1
vn 0 0 1
vn 0 0 1
vn 0 0 1
vn 0 0 1
vn 0 1 0
vn 0 1 0
vn 0 1 0
vn 0 1 0
vn 0 -1 0
vn 0 -1 0
vn 0 -1 0
vn 0 -1 0
vn 0 -1 0
vn 0 -1 0
vn 0 0 -1
vn 0 0 -1
vn 0 0 -1
vn 0 0 -1
vn 0 0 -1
vn 0 0 -1
vn 1 0 0
vn 1 0 0
vn 1 0 0
vn 1 0 0
vn 0 0 1
vn 0 0 1
vn 0 0 1
vn 0 0 1
vn 0 0 1
vn 0 0 1
vn 0 1 0
vn 0 1 0
vn 0 1 0
vn 0 1 0
vn 0 1 0
vn 0 1 0
vn -1 0 0
vn -1 0 0
vn -1 0 0
vn -1 0 0
vn -1 0 0
vn 0 0 1
vn 0 0 1
vn 0 0 1
vn 0 0 1
vn 0 0 1
vn 0 0 1
vn 0 0 1
vn 0 0 1
vn 0 0 -1
vn 0 0 -1
vn 0 0 -1
vn 0 0 -1
vn 0 0 -1
vn 0 0 -1
vn 0 0 -1
vn 0 0 -1
vn 0 0 -1
vn 0 0 -1
vn 0 0 -1
vn 0 0 -1
vn 0 0 -1
vn 0 0 -1
vn 0 0 -1
vn 0 0 -1
vn -1 0 0
vn -1 0 0
vn -1 0 0
vn -1 0 0
vn -1 0 0
vn 0 0 -1
vn 0 0 -1
vn 0 0 -1
vn 0 0 -1
vn 0 -1 0
vn 0 -1 0
vn 0 -1 0
vn 0 -1 0
vn 0 -1 0
vn 0 -1 0
vn 0 -1 0
vn 0 -1 0
vn 0 -1 0
vn 0 -1 0
vn 0 1 0
vn 0 1 0
vn 0 1 0
vn 0 1 0
vn 0 1 0
vn 0 1 0
vn 0 1 0
vn 0 1 0
vn 0 1 0
vn 0 1 0
vn 0 1 0
vn 0 1 0
vn 0 1 0
vn 0 1 0
vn -1 0 0
vn -1 0 0
vn -1 0 0
vn -1 0 0
vn -1 0 0
vn -1 0 0
vn -1 0 0
vn -1 0 0
vn -1 0 0
vn -1 0 0
vn -1 0 0
vn -1 0 0
f 2/2/2 1/1/1 3/3/3 4/4/4
f 6/6/6 5/5/5 7/7/7 8/8/8
f 10/10/10 9/9/9 11/11/11 12/12/12
f 14/14/14 13/13/13 15/15/15 16/16/16
f 18/18/18 17/17/17 19/19/19 20/20/20
f 23/23/23 21/21/21 22/22/22 24/24/24
f 26/26/26 25/25/25 27/27/27 28/28/28
f 30/30/30 29/29/29 31/31/31 32/32/32
f 34/34/34 33/33/33 35/35/35 36/36/36
f 38/38/38 37/37/37 39/39/39 40/40/40
f 42/42/42 41/41/41 45/45/45
f 46/46/46 42/42/42 45/45/45
f 44/44/44 46/46/46 43/43/43
f 42/42/42 46/46/46 44/44/44
f 48/48/48 50/50/50 49/49/49 47/47/47
f 52/52/52 51/51/51 56/56/56
f 56/56/56 55/55/55 54/54/54 52/52/52
f 54/54/54 55/55/55 53/53/53
f 58/58/58 57/57/57 61/61/61
f 62/62/62 58/58/58 61/61/61
f 60/60/60 62/62/62 59/59/59
f 58/58/58 62/62/62 60/60/60
f 64/64/64 63/63/63 65/65/65 66/66/66
f 68/68/68 67/67/67 72/72/72
f 67/67/67 69/69/69 71/71/71 72/72/72
f 70/70/70 71/71/71 69/69/69
f 74/74/74 78/78/78 73/73/73
f 78/78/78 74/74/74 76/76/76 77/77/77
f 76/76/76 75/75/75 77/77/77
f 83/83/83 80/80/80 79/79/79
f 79/79/79 81/81/81 83/83/83
f 80/80/80 83/83/83 82/82/82
f 85/85/85 84/84/84 86/86/86 87/87/87
f 89/89/89 88/88/88 90/90/90 91/91/91
f 99/99/99 92/92/92 94/94/94 96/96/96
f 93/93/93 98/98/98 97/97/97 95/95/95
f 98/98/98 99/99/99 96/96/96 97/97/97
f 101/101/101 100/100/100 106/106/106
f 100/100/100 102/102/102 105/105/105 106/106/106
f 106/106/106 107/107/107 101/101/101
f 103/103/103 105/105/105 102/102/102
f 105/105/105 103/103/103 104/104/104
f 110/110/110 112/112/112 108/108/108
f 109/109/109 112/112/112 111/111/111
f 110/110/110 111/111/111 112/112/112
f 114/114/114 113/113/113 115/115/115 116/116/116
f 123/123/123 117/117/117 124/124/124
f 125/125/125 118/118/118 120/120/120
f 117/117/117 123/123/123 120/120/120
f 123/123/123 125/125/125 120/120/120
f 123/123/123 119/119/119 126/126/126
f 126/126/126 125/125/125 123/123/123
f 118/118/118 125/125/125 121/121/121
f 119/119/119 123/123/123 122/122/122
f 134/134/134 127/127/127 133/133/133
f 130/130/130 133/133/133 127/127/127
f 133/133/133 128/128/128 132/132/132
f 128/128/128 133/133/133 136/136/136
f 135/135/135 130/130/130 129/129/129
f 129/129/129 131/131/131 135/135/135
f 133/133/133 135/135/135 136/136/136
f 133/133/133 130/130/130 135/135/135
f 138/138/138 137/137/137 139/139/139 140/140/140
f 142/142/142 141/141/141 143/143/143 144/144/144
f 146/146/146 145/145/145 147/147/147 148/148/148
f 150/150/150 149/149/149 151/151/151 152/152/152
